<svg xmlns="http://www.w3.org/2000/svg" width="145.376" height="137.718" viewBox="0 0 145.376 137.718"><g transform="translate(-12.11 -224.131)"><path d="M796.8-441.024l-.026.112-.03.125-.033.112-.005.02.1-.409Zm-.13.473-.041.109-.056.13-.049.109-.007.015.168-.4Zm-.27.58-.094.15-.059.092-.005.005.242-.4-.026.051Zm-.328.478-.147.173.282-.353-.079.109Zm-.282.323-.2.193-.091.086-.02.018.381-.376-.013.015Zm-.529.486-.135.1-.127.1-.02.015.442-.351-.043.038Zm-.542.394-.155.1-.2.12.544-.348-.053.038Zm-63.5,36.781.081-.036Zm-3.013.732.071-.01Zm-3.15.036h.023Zm-3.183-.707.1.033Zm-.15-.056,0,0h0Zm-1.3-.613.626.325h0Zm-63.292-36.669.323.254Zm.478.371.542.346Zm-.9-.768.264.259Zm-.755-1.06-.137-.325Zm.3.519-.254-.417Zm.323.407-.249-.31Zm-.943-2.2.033.369Zm.056.5.076.3-.051-.158Zm141.143-.376-.01.127-.013.112-.005.028c.209-1.409-.618-2.86-2.487-3.938l-62.27-35.952a13.308,13.308,0,0,0-12.075,0l-61.863,35.952c-1.658.964-2.484,2.225-2.479,3.486l0-.013-.028,10.463c-.005,1.274.836,2.55,2.52,3.521l62.27,35.952a9.012,9.012,0,0,0,1.231.59l.069.025.15.056.519.175.178.056.122.038.219.053.529.13.142.036.214.035.45.079.183.033.2.02.425.048.2.023.191.01.432.023.219.013h.173l.468,0,.231,0,.14-.008.575-.038.234-.018.112-.013.173-.02.59-.084.145-.023.069-.01.275-.058.473-.1.336-.092.44-.125.094-.028.519-.183.074-.031.547-.231.155-.074.577-.3,61.863-35.952.1-.061.094-.061.155-.1.137-.094.145-.1.127-.1.132-.1.12-.1.122-.107.051-.043.043-.043.193-.193.061-.064.224-.259.008-.01.046-.061.119-.165.061-.092.091-.153.026-.041.033-.061.066-.13.051-.107.053-.13.025-.059.018-.051.041-.125.033-.112.03-.125.015-.069.008-.046.02-.127.013-.112.01-.13.005-.076,0-.074.028-10.465,0,.153" transform="translate(-641.433 749.989)" fill="#fff"/><path d="M722.963-398.362a2.09,2.09,0,0,1-.7-.119l-.092-.033-.023-.008-.071-.028-.041-.013-.071-.025-.394-.2-.419-.147-.018-.008c-.264-.125-.519-.259-.758-.4a2.07,2.07,0,0,1-.755-2.827,2.07,2.07,0,0,1,2.827-.755h0l.455.239,0,0h0l.015.008.038.018h0l.211.122.2.058.076.025.048.02.061.02.094.031a2.067,2.067,0,0,1,1.373,1.95,2.064,2.064,0,0,1-.119.694,2.071,2.071,0,0,1-1.948,1.375Zm3.11.674-.231-.013.17-1.531.191-2.591.094.008a2.08,2.08,0,0,1,1.322.686,2.065,2.065,0,0,1,1.312-.717l.081-.01h.005a2.045,2.045,0,0,1,1.386.323,2.053,2.053,0,0,1,1.012-.905l.1-.041h0l.01-.005a2.069,2.069,0,0,1,2.685,1.152,2.067,2.067,0,0,1-1.129,2.682l-.084.036-.01.005-.015.005-.01.005a2.073,2.073,0,0,1-1.884-.2,2.078,2.078,0,0,1-1.533,1.045l-.109.015a2.063,2.063,0,0,1-1.787-.684A2.07,2.07,0,0,1,726.073-397.689Zm-1.1,6.153.165.028.384.066.15.025.175.02.364.041.341.028.371.02.18.01h.28l.277,0h.188l.13-.008.5-.036.165-.01.275-.031.506-.071.076-.013.061-.01.064-.01.208-.046.043-.008.353-.076.173-.046.107-.031.361-.1.109-.033.389-.137.051-.023.44-.186.122-.059.437-.229,61.937-35.992.72-.526.023-.02.01-.01.143-.14.043-.046.112-.132.03-.041.058-.079.033-.053.041-.064.01-.018.023-.041.041-.084.02-.048.01-.026.031-.1.013-.056,0-.008,0-.02.01-.1.005-.046.015-5.332a2.049,2.049,0,0,1-1.459-.849,2.059,2.059,0,0,1,.071-2.5l-.048-.084.048.084v0l-.048-.081h0l.112-.069.036-.023.18-.117.059-.043.041-.028.008-.005h0l.005,0,.1-.076.048-.036.145-.119.03-.025.01-.01.049-.043.005-.005h0l.132-.13.033-.035h0l.043-.053.137-.165.028-.041.015-.02.026-.038.053-.092.02-.038.015-.031,0,0,.023-.048.01-.028.031-.074,0-.01,0-.01v0h0l.02-.081,0-.013.008-.033v0c.084-.582-.481-1.286-1.472-1.859l-62.27-35.952A10.343,10.343,0,0,0,727-479.411a10.27,10.27,0,0,0-4.991,1.17l-61.863,35.949c-.887.516-1.424,1.131-1.449,1.653l0,.066.007.1,0,0,.005.033v0l.025.1.015.053,0,.008.053.12.036.074.081.135.059.074.135.168.02.025.053.053.165.163.051.046.046.038.219.17h0l0,0,.079.061.031.02.392.249a2.062,2.062,0,0,1,1.035,1.8,2.048,2.048,0,0,1-.277,1.03,2.071,2.071,0,0,1-2.258.984l-.015,4.93c0,.542.554,1.187,1.487,1.724l62.271,35.952a7.474,7.474,0,0,0,.938.453l.2.071.414.142.255.079.178.041.443.109Zm2.118,4.378-.084,0-.2-.008-.046-.005-.491-.025-.221-.013-.2-.02-.519-.059-.229-.025-.2-.033-.536-.094-.249-.043-.175-.043-.605-.147-.254-.064-.13-.041-.2-.064-.636-.216-.257-.094a11.39,11.39,0,0,1-1.51-.725l-62.27-35.952c-2.265-1.307-3.562-3.247-3.555-5.319l.028-10.457v-.008l0-.074a6.3,6.3,0,0,1,3.509-5.182l61.863-35.952A14.3,14.3,0,0,1,727-483.548a14.39,14.39,0,0,1,7.078,1.724l62.27,35.952A6.356,6.356,0,0,1,799.9-440.7l.005.142-.03,10.463,0,.137-.008.148-.015.2-.023.183-.028.178-.015.089-.038.17-.046.188-.049.168-.058.18-.041.117-.015.038-.036.084-.081.193-.076.163-.094.183-.066.125-.056.092-.122.2-.1.15-.173.239-.069.089-.038.048-.292.341-.079.081-.254.257-.079.076-.1.084-.147.13-.153.127-.186.145-.17.127-.18.127-.175.119-.2.125-.254.155L734.5-388.884c-.208.122-.437.242-.714.376l-.186.089-.666.282-.1.043-.6.214-.14.041-.463.132-.109.031-.308.081-.514.109-.1.023-.249.053-.1.015-.107.018c-.265.043-.491.074-.719.1l-.323.038-.229.018-.043,0-.658.043-.153.01-.15,0-.117,0-.354.005-.178,0-.114,0" transform="translate(-642.417 749.006)" fill="#231f20"/><path d="M796.845-460.831l-.01.127-.013.112-.02.13-.026.112-.03.125-.033.112-.041.125-.041.109-.056.13-.048.109-.066.127-.058.1-.094.15-.058.092-.12.165-.056.071-.221.259-.061.064-.2.193-.092.087-.125.109-.117.1-.135.1-.127.1-.142.1-.137.092-.155.1-.2.12-61.863,35.952-.577.3-.158.074-.544.234-.074.031-.613.208-.44.127-.336.089-.473.1-.343.069-.145.025-.59.081-.175.023-.343.028-.577.038-.369.01-.468,0-.392-.01-.432-.023-.394-.033-.427-.048-.381-.053-.453-.079-.354-.071-.529-.13-.341-.092-.178-.056-.521-.178-.148-.053-.615-.264-.059-.025-.625-.325-62.272-35.952a4.76,4.76,0,0,1-2.433-2.807,3,3,0,0,1-.086-.715l-.028,10.463c-.005,1.274.837,2.55,2.52,3.521l62.27,35.952a8.989,8.989,0,0,0,1.23.59l.069.025.15.056.519.175.178.056.122.038.219.053.529.13.142.036.214.036.45.079.183.033.2.02.425.048.2.023.191.01.432.023.218.013h.173l.468,0,.231,0,.14-.008.575-.038.234-.018.112-.013.173-.02.59-.084.145-.023.069-.01.274-.059.473-.1.336-.091.44-.125.094-.028.519-.183.074-.031.547-.231.155-.074.577-.3,61.863-35.952.1-.061.094-.061.155-.1.137-.094.145-.1.127-.1.132-.1.119-.1.122-.107.051-.043.043-.043.193-.193.061-.064.224-.259.008-.01.046-.061.12-.165.061-.092.091-.153.025-.041.033-.061.066-.13.051-.107.053-.13.025-.058.018-.051.041-.125.033-.112.031-.125.015-.069.007-.046.021-.127.013-.112.01-.13.005-.076,0-.074.028-10.465-.005.153" transform="translate(-641.433 769.428)" fill="#fff"/><path d="M656.55-457.9l-.02,7.635c-.005,1.1.781,2.156,2.209,2.982l62.27,35.952a8.564,8.564,0,0,0,1.149.549l.206.076.488.165.285.089.089.023.12.028.5.125.132.033.094.015.109.018.432.076.366.051.4.046.379.033.414.02.209.013.018.62v-.62l.12,0,.173,0,.305-.005h.058l.107,0,.188-.01.552-.038.122-.008.1-.008.274-.03.565-.081.137-.02.046-.008.155-.033.125-.028.45-.094.221-.061.1-.025.414-.119.071-.02.508-.178.068-.028.514-.219.145-.069.534-.28L794.51-447.4l.394-.264.112-.084.341-.28.033-.033.043-.038.175-.178.033-.033.214-.247.028-.03.12-.17.033-.048.1-.158.028-.046.023-.043.053-.1.041-.089.043-.1.021-.053.013-.036.033-.1.028-.094.023-.1.013-.048.008-.043.015-.1.01-.087.007-.1.005-.053v-.064l.023-7.64-.2.2-.1.094-.14.122-.13.107-.148.117-.137.1-.158.109-.15.1-.168.1-.046.031-.165.1-61.863,35.952-.62.325-.165.079-.58.247-.076.031-.651.224-.442.127-.122.033-.252.069-.442.094-.16.033-.252.051-.153.025-.615.086-.185.02-.249.023-.107.008-.6.041-.386.01-.325,0h-.16l-.409-.01-.45-.025-.412-.033-.445-.051-.4-.056-.473-.081-.371-.076-.557-.135-.094-.025-.264-.074-.186-.056-.549-.188-.158-.058-.653-.28-.066-.028c-.231-.109-.458-.229-.666-.348l-62.272-35.952a7.115,7.115,0,0,1-1.6-1.228Zm69.857,49.17h-.048l-.145-.008-.081-.005-.45-.023-.071-.005-.129-.008-.14-.013-.074-.01-.442-.048-.074-.008-.135-.018-.13-.02-.061-.013-.473-.081-.076-.013-.147-.025-.107-.026-.041-.01-.554-.137-.079-.018-.153-.038-.292-.092-.572-.193-.229-.084a10.327,10.327,0,0,1-1.314-.631l-62.27-35.952c-1.831-1.058-2.835-2.5-2.832-4.063l.031-10.46v0a.623.623,0,0,1,.62-.62h0a.62.62,0,0,1,.618.623l.069.564a4.147,4.147,0,0,0,2.143,2.418L721.04-421.8l.58.3.056.025.577.247.14.051.491.168.168.051.224.061.1.025.5.125.338.069.432.074.364.053.407.046.379.031.412.023.376.01h.145l.3,0,.356-.01.552-.036.114-.01.214-.018.168-.02.564-.079.137-.023.208-.043.173-.036.394-.084.211-.056.109-.031.417-.117.577-.2.071-.031.508-.216.148-.071.534-.28,61.863-35.952.137-.081.048-.03.14-.089.122-.084.135-.092.115-.086.12-.094.107-.089.109-.1.084-.076.17-.17.028-.03.219-.249.048-.066.1-.135.038-.061.091-.145.048-.087.053-.107.041-.084.048-.112.132-.463.015-.1.02-.193.005-.122a.62.62,0,0,1,.62-.615h.005a.623.623,0,0,1,.618.623l-.033,10.557-.005.074-.013.175-.015.132-.025.16-.008.043-.02.084-.038.158-.038.135-.048.145-.02.061-.025.064-.071.163-.056.125-.079.15-.033.066-.038.061-.1.17-.071.109-.137.188-.051.069-.028.033-.234.272-.049.048-.239.241-.046.043-.046.043-.147.127-.13.107-.147.117-.143.107-.155.107-.147.1-.163.1-.219.132-61.863,35.952-.618.323-.165.079-.582.249-.084.033-.544.193-.081.023-.452.13-.12.033-.262.069-.458.1-.135.028-.191.041-.053.008-.168.028-.618.086-.3.036-.16.013-.084.005-.6.038-.041.005-.1.005-.1,0h-.107l-.364,0h-.292" transform="translate(-641.73 769.132)" fill="#231f20"/><path d="M794.316-445.064c3.346,1.93,3.361,5.06.038,6.992L732.492-402.12a13.3,13.3,0,0,1-12.072,0l-62.272-35.952c-3.343-1.932-3.361-5.062-.038-6.995l61.863-35.952a13.308,13.308,0,0,1,12.075,0l62.27,35.952" transform="translate(-641.42 749.989)" fill="#fff"/><path d="M726.5-480.937a11.148,11.148,0,0,0-5.51,1.309L659.12-443.676a3.277,3.277,0,0,0-1.965,2.588c0,.941.712,1.869,2,2.614l62.27,35.952a11.243,11.243,0,0,0,5.525,1.309,11.154,11.154,0,0,0,5.51-1.309l61.866-35.952c1.269-.737,1.968-1.655,1.965-2.588s-.712-1.869-2-2.614l-62.27-35.952a11.26,11.26,0,0,0-5.528-1.309Zm.458,81.794a13.34,13.34,0,0,1-6.56-1.587l-62.27-35.952c-1.955-1.129-3.036-2.693-3.038-4.4s1.063-3.257,3-4.381l61.865-35.952a13.234,13.234,0,0,1,6.55-1.589,13.326,13.326,0,0,1,6.562,1.589l62.27,35.952c1.955,1.129,3.033,2.693,3.036,4.4s-1.06,3.257-3,4.381L733.5-400.732a13.233,13.233,0,0,1-6.549,1.589" transform="translate(-641.912 749.497)" fill="#231f20"/><path d="M692.522-491.924a15.826,15.826,0,0,0,12.448,18.6,15.828,15.828,0,0,0,18.6-12.448,15.828,15.828,0,0,0-12.451-18.6,15.824,15.824,0,0,0-18.6,12.448" transform="translate(-608.237 729.843)" fill="#fff"/><path d="M708.523-503.151a14.818,14.818,0,0,0-14.5,11.919,14.807,14.807,0,0,0,11.635,17.386,14.805,14.805,0,0,0,2.893.285,14.817,14.817,0,0,0,14.495-11.919,14.812,14.812,0,0,0-11.637-17.386A14.779,14.779,0,0,0,708.523-503.151Zm.033,31.66h0a17.123,17.123,0,0,1-3.3-.323A16.882,16.882,0,0,1,692-491.633a16.894,16.894,0,0,1,16.524-13.587,16.954,16.954,0,0,1,3.3.325,16.88,16.88,0,0,1,13.262,19.817,16.894,16.894,0,0,1-16.524,13.587" transform="translate(-608.728 729.351)" fill="#231f20"/><path d="M682.22-475.976l-.3.1.142-.064h0a3.016,3.016,0,0,1-2.593-.74,7.426,7.426,0,0,1-2.377-7.012,2.973,2.973,0,0,1,1.594-2.133l-.163.041L712.184-497.3a2.615,2.615,0,0,1,2.54.768l.313.3.1.112.173.188.018.025.361.47.028.038.074.117.18.282.048.076.064.117.135.247.053.1.053.112.112.239.053.114.043.107.1.247.048.125.035.1.089.272.046.135.023.081.091.343.036.14.008.041.114.59.005.03.02.173.033.292.013.211.015.28,0,.061,0,.1-.015.44-.013.163-.079.547-.015.071-.041.158-.059.219-.063.175-.074.2-.015.038-.038.071-.155.285-.033.064-.038.051-.135.175-.056.074-.03.031-.13.125-.076.071-.028.02-.132.092-.092.064-.025.013-.15.071-.1.046-.043.015-33.333,11.408-.023.01" transform="translate(-622.099 736.445)" fill="#fff"/><path d="M679.672-484.42l-.079.038a2,2,0,0,0-1,1.434A6.41,6.41,0,0,0,680.61-477a2.04,2.04,0,0,0,1.7.547l.074-.015,33.341-11.411.069-.033.066-.031.051-.033.061-.043,0,0,.048-.046.064-.058.013-.013.031-.041.084-.112.015-.02.028-.048.1-.183.033-.061,0-.008.046-.122.031-.084.025-.069.031-.119.058-.226.064-.445.008-.1.015-.4,0-.1,0-.036-.01-.214-.013-.208-.028-.229-.018-.165-.005-.023-.1-.529-.013-.076-.026-.079-.081-.31-.02-.076-.038-.117-.081-.241-.074-.2-.089-.221-.084-.2-.1-.211-.033-.071.9-.514-.921.473-.041-.076-.117-.214-.043-.076-.051-.084-.16-.252-.051-.079-.038-.056-.305-.4-.028-.036-.086-.094-.125-.135-.257-.247a1.7,1.7,0,0,0-1.521-.567ZM682-474.346a4.334,4.334,0,0,1-2.68-1.032,8.442,8.442,0,0,1-2.736-8.073,4.189,4.189,0,0,1,1.709-2.576l.394-.244h0l33.653-11.518a3.645,3.645,0,0,1,3.557.971l.374.356.091.1.028.033.038.041.163.18.038.048.386.5.038.053.076.117.219.346.056.084.056.1.168.308.061.115.048.1.135.287.061.135.038.094.12.3.056.14.028.087.109.323.048.15.028.1.1.381.041.155.015.076.12.631.023.17,0,.051.038.338.013.181,0,.058.015.323,0,.081,0,.107-.018.5-.015.191c-.025.249-.056.458-.094.653l-.021.086-.038.158-.023.081-.061.224-.061.178-.015.041-.084.224-.025.064-.071.14-.175.323-.058.1-.079.112-.17.221-.081.1-.071.071-.163.158-.12.109-.074.056-.155.107-.163.109-.079.041-.17.081-.178.079-.079.028L682.751-474.4h0l-.46.048-.29.01" transform="translate(-622.591 735.954)" fill="#231f20"/><path d="M670.027-487.9a17.237,17.237,0,0,0,6.481,23.5,17.24,17.24,0,0,0,23.5-6.481,17.24,17.24,0,0,0-6.481-23.5,17.239,17.239,0,0,0-23.5,6.481" transform="translate(-630.402 737.139)" fill="#fff"/><path d="M685.528-495.106a16.246,16.246,0,0,0-14.106,8.207,16.1,16.1,0,0,0-1.531,12.306,16.1,16.1,0,0,0,7.623,9.784,16.208,16.208,0,0,0,7.981,2.115A16.247,16.247,0,0,0,699.6-470.9a16.22,16.22,0,0,0-6.092-22.09,16.219,16.219,0,0,0-7.984-2.115Zm-.031,34.482h0a18.3,18.3,0,0,1-9-2.385,18.157,18.157,0,0,1-8.594-11.032,18.156,18.156,0,0,1,1.724-13.88,18.321,18.321,0,0,1,15.906-9.255,18.3,18.3,0,0,1,9.006,2.385,18.294,18.294,0,0,1,6.87,24.912,18.323,18.323,0,0,1-15.906,9.255" transform="translate(-630.896 736.646)" fill="#231f20"/><path d="M677.3-477.482l-.183-.305.1.142v0a3.436,3.436,0,0,1,.2-3.064,8.466,8.466,0,0,1,7.234-4.322,3.385,3.385,0,0,1,2.754,1.264l-.081-.168L708.2-449.239a2.985,2.985,0,0,1-.249,3.01l-.259.422-.1.137-.17.236-.02.025-.44.516-.036.041-.112.109-.27.27-.074.071-.114.1-.244.209-.1.084-.112.084-.239.183-.115.087-.109.074-.252.168-.125.086-.1.061-.282.165-.14.084-.086.043-.359.186-.145.074-.046.018-.631.267-.031.013-.188.064-.315.109-.234.066-.308.081-.068.018-.109.02-.493.086-.183.025-.628.046h-.084l-.183-.01-.257-.013-.214-.028-.234-.035-.046-.005-.086-.026-.356-.1-.079-.023-.066-.031-.226-.107-.1-.046-.041-.028-.17-.115-.1-.066-.028-.028-.135-.124-.092-.087-.02-.025-.115-.15-.074-.1-.028-.043-20.669-34.363-.018-.026" transform="translate(-622.084 747.661)" fill="#fff"/><path d="M700.414-442.512l.02,0,.135.02.041.005.066.01.094.013.155.008.2.01h.069l.521-.038.12-.015.458-.081.107-.02.041-.01.262-.071.086-.023.132-.038.247-.084.2-.066.593-.252.071-.031.005-.005.094-.048.323-.165.2-.114.252-.148.209-.135.224-.15.206-.145.213-.163.186-.15.214-.186.168-.153.239-.236.074-.071.061-.066.376-.44.031-.038.092-.132.124-.173.214-.348a2.062,2.062,0,0,0,.267-1.975l-20.681-34.378-.058-.076a2.418,2.418,0,0,0-1.95-.831,7.4,7.4,0,0,0-6.27,3.748,2.459,2.459,0,0,0-.2,2.148l.033.076,0,.005.033.056,20.651,34.33.058.076.053.074h0l.051.048.074.071.007.008.064.043.1.066.018.01.064.033.145.069.038.015.056.018.249.074Zm.707,2.138-.178-.008-.089-.005-.267-.015-.208-.025-.051-.005-.265-.041-.081-.015-.148-.038-.4-.117-.137-.043-.117-.051-.282-.135-.13-.064-.089-.059-.214-.142-.142-.1-.071-.064-.158-.148-.145-.142-.064-.074-.127-.168L697.63-442l-.041-.069L676.921-476.43l-.033-.056-.163-.267v0l0-.005h0l0,0-.145-.45a4.664,4.664,0,0,1,.414-3.46,9.567,9.567,0,0,1,8.195-4.9,4.641,4.641,0,0,1,3.188,1.253l.333.341v0h0l0,0,20.867,34.691a3.946,3.946,0,0,1-.231,4.048l-.3.491-.086.119-.061.089-.165.226-.036.046-.483.564h0l-.036.041-.1.1-.33.325-.079.079-.1.086-.3.257-.107.092-.094.071-.3.226-.122.092-.094.066-.305.2-.035.025-.1.069-.1.056-.325.193-.043.025-.112.066-.091.048-.4.2-.041.02-.12.061-.076.033c-.2.094-.437.193-.671.282l-.046.02-.143.048-.056.018-.351.119-.2.059-.063.018-.346.092-.074.02-.13.023-.559.1-.211.031c-.28.031-.514.048-.735.051h-.1" transform="translate(-622.577 747.168)" fill="#231f20"/><path d="M683.72-463.924a22.084,22.084,0,0,0,8.3,30.1,22.082,22.082,0,0,0,30.1-8.3,22.078,22.078,0,0,0-8.3-30.1,22.081,22.081,0,0,0-30.1,8.3" transform="translate(-618.555 756.661)" fill="#fff"/><path d="M703.433-473.582a21.107,21.107,0,0,0-18.324,10.661,21.072,21.072,0,0,0,7.915,28.693,21.064,21.064,0,0,0,10.369,2.746,21.1,21.1,0,0,0,18.322-10.661,21.068,21.068,0,0,0-7.913-28.69A21.047,21.047,0,0,0,703.433-473.582Zm-.041,44.169h0A23.117,23.117,0,0,1,692-432.429a23.141,23.141,0,0,1-8.691-31.515,23.172,23.172,0,0,1,20.122-11.706,23.133,23.133,0,0,1,11.391,3.015,23.141,23.141,0,0,1,8.691,31.512,23.177,23.177,0,0,1-20.122,11.709" transform="translate(-619.043 756.169)" fill="#231f20"/></g></svg>