<?xml version="1.0" encoding="UTF-8" standalone="no"?>
<svg
   xmlns:dc="http://purl.org/dc/elements/1.1/"
   xmlns:cc="http://creativecommons.org/ns#"
   xmlns:rdf="http://www.w3.org/1999/02/22-rdf-syntax-ns#"
   xmlns:svg="http://www.w3.org/2000/svg"
   xmlns="http://www.w3.org/2000/svg"
   id="svg4"
   version="1.1"
   viewBox="0 0 30 30"
   height="30"
   width="30">
  <metadata
     id="metadata10">
    <rdf:RDF>
      <cc:Work
         rdf:about="">
        <dc:format>image/svg+xml</dc:format>
        <dc:type
           rdf:resource="http://purl.org/dc/dcmitype/StillImage" />
        <dc:title></dc:title>
      </cc:Work>
    </rdf:RDF>
  </metadata>
  <defs
     id="defs8" />
  <path
     style="fill:#000000"
     id="path2"
     d="m 24.024,11.999928 a 5.986,5.986 0 0 0 -2.177,0.4 L 18.206,6.5329282 a 1.125,1.125 0 0 0 -0.956,-0.533 h -3 a 0.75,0.75 0 0 0 -0.75,0.75 v 0.75 a 0.75,0.75 0 0 0 0.75,0.75 h 2.374 l 0.7,1.125 H 12 v -0.75 a 0.75,0.75 0 0 0 -0.75,-0.75 h -4.1 a 1.146,1.146 0 0 0 -1.15,1.145 1.125,1.125 0 0 0 1.125,1.0999998 h 2.284 l -1.379,2.232 a 6,6 0 1 0 3.781,7.148 h 2.439 a 1.125,1.125 0 0 0 0.957,-0.533 l 4.029,-6.509 0.7,1.128 a 5.984,5.984 0 0 0 -1.936,4.427 6.078,6.078 0 0 0 5.94,5.987 6.0001435,6.0001435 0 1 0 0.083,-12 z m -15.27,3.458 a 3.743,3.743 0 0 1 0.921,1.792 H 7.644 Z M 6,21.749928 a 3.75,3.75 0 1 1 0.8,-7.413 l -2.132,3.446 a 1.126,1.126 0 0 0 0.957,1.717 h 3.811 a 3.755,3.755 0 0 1 -3.436,2.25 z m 7.623,-4.5 h -1.67 a 5.988,5.988 0 0 0 -1.986,-3.75 l 1.16,-1.874 h 5.979 z m 10.177,4.495 a 3.747,3.747 0 0 1 -2.639,-6.188 l 2.083,3.356 a 0.75,0.75 0 0 0 1.033,0.242 l 0.637,-0.4 a 0.75,0.75 0 0 0 0.242,-1.033 l -2.084,-3.358 a 3.75,3.75 0 1 1 0.729,7.378 z" />
</svg>
