<?xml version="1.0" encoding="UTF-8" standalone="no"?>
<svg
   xmlns:dc="http://purl.org/dc/elements/1.1/"
   xmlns:cc="http://creativecommons.org/ns#"
   xmlns:rdf="http://www.w3.org/1999/02/22-rdf-syntax-ns#"
   xmlns:svg="http://www.w3.org/2000/svg"
   xmlns="http://www.w3.org/2000/svg"
   id="svg4"
   version="1.1"
   viewBox="0 0 512 512"
   role="img"
   class="svg-inline--fa fa-exchange-alt fa-w-16"
   data-icon="exchange-alt"
   data-prefix="fas"
   focusable="false"
   aria-hidden="true">
  <path
     style="fill:#000000"
     id="path2"
     d="m 168.00271,511.99729 h -16 c -13.255,0 -24,-10.745 -24,-24 l 0,-360 H 80.002714 c -21.367,0 -32.042,-25.899 -16.971,-40.971004 L 143.03171,7.0262857 c 9.373,-9.372 24.569,-9.372 33.941,0 l 80,80.0000003 c 15.012,15.015004 4.486,40.971004 -16.97,40.971004 h -48 l 0,360 c 0,13.255 -10.745,24 -24,24 z m 152,-488.000004 0,360.000004 h -48 c -21.314,0 -32.08,25.862 -16.971,40.971 l 80,80 c 9.373,9.372 24.569,9.372 33.941,0 l 80,-80 c 15.027,-15.028 4.467,-40.971 -16.97,-40.971 h -48 l 0,-360.000004 c 0,-13.255 -10.745,-24.00000032 -24,-24.00000032 h -16 c -13.255,0 -24,10.74500032 -24,24.00000032 z" />
</svg>
