<svg xmlns="http://www.w3.org/2000/svg" width="30" height="21" viewBox="0 0 30 21"><path d="M4.5,41a3,3,0,1,0-3-3A3,3,0,0,0,4.5,41Zm21,0a3,3,0,1,0-3-3A3,3,0,0,0,25.5,41ZM27,42.5H24a2.991,2.991,0,0,0-2.114.872,6.857,6.857,0,0,1,3.52,5.128H28.5A1.5,1.5,0,0,0,30,47V45.5A3,3,0,0,0,27,42.5Zm-12,0a5.25,5.25,0,1,0-5.25-5.25A5.247,5.247,0,0,0,15,42.5ZM18.6,44h-.389a7.248,7.248,0,0,1-6.422,0H11.4A5.4,5.4,0,0,0,6,49.4v1.35A2.251,2.251,0,0,0,8.25,53h13.5A2.251,2.251,0,0,0,24,50.75V49.4A5.4,5.4,0,0,0,18.6,44ZM8.114,43.372A2.991,2.991,0,0,0,6,42.5H3a3,3,0,0,0-3,3V47a1.5,1.5,0,0,0,1.5,1.5H4.589a6.874,6.874,0,0,1,3.525-5.128Z" transform="translate(0 -32)" fill="#000000"/></svg>