<svg xmlns="http://www.w3.org/2000/svg" width="26" height="22.776" viewBox="0 0 26 22.776"><path d="M23.426-15.6H4.056a.778.778,0,0,1-.572-.234.778.778,0,0,1-.234-.572.822.822,0,0,1,.234-.585.758.758,0,0,1,.572-.247h19.5a.822.822,0,0,0,.585-.234.758.758,0,0,0,.247-.572,2.355,2.355,0,0,0-.715-1.729,2.355,2.355,0,0,0-1.729-.715H3.25a3.114,3.114,0,0,0-1.625.442A3.363,3.363,0,0,0,.442-18.863,3.114,3.114,0,0,0,0-17.238V-.988A3.182,3.182,0,0,0,.442.65a3.329,3.329,0,0,0,1.183,1.2,3.114,3.114,0,0,0,1.625.442H23.426a2.525,2.525,0,0,0,1.82-.728A2.309,2.309,0,0,0,26-.156v-13a2.3,2.3,0,0,0-.754-1.729A2.55,2.55,0,0,0,23.426-15.6ZM21.138-5.044a1.6,1.6,0,0,1-1.157-.468A1.535,1.535,0,0,1,19.5-6.656a1.577,1.577,0,0,1,.481-1.157,1.577,1.577,0,0,1,1.157-.481,1.535,1.535,0,0,1,1.144.481,1.6,1.6,0,0,1,.468,1.157,1.556,1.556,0,0,1-.468,1.144A1.556,1.556,0,0,1,21.138-5.044Z" transform="translate(0 20.488)" fill="#000000"/></svg>