<svg xmlns="http://www.w3.org/2000/svg" width="145.376" height="145.403" viewBox="0 0 145.376 145.403"><g transform="translate(-228 -8.968)"><path d="M205.215-603.84l-.025.114-.028.122-.033.115-.008.02.1-.409Zm-.127.475-.043.109-.053.13-.051.107-.008.015.168-.4Zm-.272.577-.094.153-.058.092,0,.005.239-.4-.025.051Zm-.328.481-.147.173.282-.353-.079.107Zm-.282.323-.2.193-.092.086-.02.018.381-.376-.013.015Zm-.529.485-.135.1-.127.1-.02.013.442-.351-.043.038Zm-.542.394-.155.1-.2.122.542-.348-.053.036Zm-63.5,36.778.082-.033Zm-3.013.735.072-.01Zm-3.15.033.023,0Zm-3.182-.7.1.033-.1-.033Zm-.151-.056h0Zm-1.3-.615.626.328h0ZM65.554-601.6l.324.254Zm.48.369.542.346Zm-.9-.765.265.259Zm-.754-1.063-.139-.323Zm.3.521-.254-.417Zm.324.4-.249-.308Zm-.944-2.2.033.371Zm.057.5.076.3-.05-.16Zm141.141-.376-.01.129-.013.112-.005.025c.209-1.408-.618-2.858-2.484-3.936l-62.271-35.952a13.3,13.3,0,0,0-12.075,0L66.537-607.88c-1.658.964-2.483,2.225-2.48,3.488v-.015l-.03,10.465c0,1.274.837,2.55,2.521,3.521l62.271,35.952a9.313,9.313,0,0,0,1.231.59l.069.025.149.053.519.178.179.056.121.038.219.053.53.13.141.033.213.038.452.079.182.031.2.023.426.048.2.023.192.01.432.023.218.01h.174l.468,0h.232l.138-.01.576-.038.232-.015.111-.013.174-.02.591-.084.144-.023.068-.012.275-.059.473-.1.336-.091.439-.125.094-.028.518-.183.076-.03.544-.234.158-.074.576-.3,61.864-35.949.1-.064.092-.058.155-.1.137-.092.145-.1.127-.094.132-.1.12-.1.122-.107.051-.046.043-.041.193-.193.064-.066.221-.257.008-.013.046-.061.12-.165.061-.092.094-.15.025-.041.031-.064.066-.127.051-.109.053-.13.025-.056.018-.053.041-.125.033-.112.031-.125.015-.066.008-.046.02-.13.015-.112.008-.127.005-.076,0-.074.028-10.465-.005.15" transform="translate(166.043 705.329)" fill="#fff"/><path d="M134.484-560.5l-.159-.008-.086-.008a2.069,2.069,0,0,1-1.606-1.086,2.066,2.066,0,0,1-1.946.308l-.042-.013-.018-.008-.008,0h0l-.048-.018-.077-.031-.027-.008-.1-.036-.377-.2-.21-.061-.209-.086L129-562.04l-.208-.117h0a2.07,2.07,0,0,1-.758-2.827,2.072,2.072,0,0,1,2.827-.758l.48.252.249.14.2.056.1.036.026.01.047.018.111.038h0l.011,0a2.068,2.068,0,0,1,1.117.974,2.061,2.061,0,0,1,1.429-.419l.014,0h0l.034,0a2.085,2.085,0,0,1,1.342.7,2.063,2.063,0,0,1,1.349-.727l.033-.005.021,0,0,0a2.069,2.069,0,0,1,1.388.323,2.048,2.048,0,0,1,1.016-.9l.1-.046h0a2.069,2.069,0,0,1,2.691,1.152,2.066,2.066,0,0,1,.15.77,2.071,2.071,0,0,1-1.272,1.907l-.127.056a2.063,2.063,0,0,1-1.886-.2,2.072,2.072,0,0,1-1.538,1.045l-.1.013-.04.005h-.01l0,0h-.008a2.068,2.068,0,0,1-1.731-.694,2.051,2.051,0,0,1-1.573.737Zm-1.1,6.15.168.028.385.069.147.026.178.02.364.041.193.02.147.008.369.02.183.01.106,0h.05l.129,0,.269,0,.088,0h.118l.114-.008.495-.033.163-.01.276-.031.505-.071.083-.013.118-.02.263-.056.343-.074.176-.048.1-.028.363-.1.112-.031.385-.137.071-.031.419-.178.125-.061.436-.226,61.943-36,.707-.516.028-.023.033-.033.12-.12.038-.041.112-.127.041-.056.053-.074.028-.043.046-.071.01-.02.023-.041.061-.132.01-.023.008-.023.033-.122.005-.013.008-.059.008-.066,0-.049.013-4.945a2.067,2.067,0,0,1-2.184-.991,2.071,2.071,0,0,1,.748-2.83h0l.107-.066.038-.023.2-.13.041-.028.008-.005h0l.028-.02.02-.015.1-.076.051-.038.137-.115.01-.01.02-.015.013-.013.053-.048.008-.008.125-.125.036-.036.043-.051.132-.165.01-.013h0l.005-.005h0l.031-.043.053-.081.005-.01.041-.076.015-.031,0,0,.064-.153,0-.01,0-.01.033-.13v-.007c.086-.575-.478-1.279-1.47-1.854l-62.271-35.952a10.377,10.377,0,0,0-5.011-1.17,10.262,10.262,0,0,0-4.99,1.167L68.56-605.106c-.886.516-1.423,1.129-1.449,1.653l0,.058v.02l.01.086h0l.007.038.025.094v0l.016.053.054.125.036.076.083.135.057.074.133.165v0l.022.023.054.056.164.16.052.048.049.038.216.17.08.061.03.02.379.244.014.008h0a2.071,2.071,0,0,1,.757,2.827,2.067,2.067,0,0,1-2.258.981l-.014,4.933c0,.542.553,1.185,1.486,1.724l62.27,35.952a7.381,7.381,0,0,0,.941.452l.189.069.422.142.245.076.186.046.442.109Zm2.12,4.378h-.085l-.2-.01-.045,0-.5-.025-.218-.013-.2-.023-.523-.059-.226-.025-.192-.031-.544-.1-.239-.041-.183-.043-.6-.148-.258-.066-.353-.109-.616-.208-.182-.069-.08-.028a11.665,11.665,0,0,1-1.5-.722L66.5-587.643c-2.264-1.309-3.561-3.247-3.554-5.322l.03-10.463,0-.079a6.3,6.3,0,0,1,3.508-5.177l61.865-35.952a14.291,14.291,0,0,1,7.069-1.729,14.365,14.365,0,0,1,7.079,1.726l62.272,35.952a6.36,6.36,0,0,1,3.549,5.187l0,.124v.01l-.031,10.577-.01.163-.015.2-.02.173-.03.2-.02.117-.031.14-.043.17-.056.2-.058.178-.048.137-.043.1-.074.173-.081.175-.1.2-.064.117-.048.081-.13.206-.089.137-.175.244-.069.092-.036.043-.3.346-.076.079-.259.259-.1.094-.074.066-.15.13-.163.135-.168.132-.173.13-.191.132-.168.115-.2.127-.122.076-.13.079L142.913-551.7c-.212.122-.439.242-.714.376l-.19.089-.661.282-.087.036-.621.219-.142.043-.466.132-.1.028-.311.084-.5.107-.122.025-.247.051-.1.018-.109.015c-.264.043-.492.076-.72.1l-.331.038-.216.015-.045,0-.656.043-.157.01-.148,0h-.119l-.347,0h-.3" transform="translate(165.059 704.345)" fill="#231f20"/><path d="M205.259-623.647l-.01.129-.013.112-.02.127-.025.114-.028.122-.033.114-.041.125-.043.109-.053.13-.051.107-.066.13-.059.1-.094.153-.058.092-.12.163-.056.074-.221.259-.061.064-.2.193-.092.086-.125.107-.117.1-.135.1-.127.1-.142.1-.137.094-.155.1-.2.122-61.864,35.952-.576.3-.157.074-.545.231-.074.031-.613.211-.44.125-.335.091-.473.1-.344.069-.144.023-.591.084-.174.02-.344.03-.577.038-.37.01-.467,0-.391-.013-.432-.023-.4-.033-.425-.046-.382-.056-.452-.079-.355-.071-.529-.13-.34-.091-.18-.056-.518-.175-.148-.056-.617-.262-.058-.025-.625-.328L66.577-620.324a4.745,4.745,0,0,1-2.433-2.807,2.971,2.971,0,0,1-.087-.715l-.03,10.465c0,1.274.837,2.55,2.521,3.521l62.271,35.952a9.314,9.314,0,0,0,1.231.59l.069.025.149.053.519.178.179.056.121.038.219.053.53.13.141.033.213.038.452.079.182.031.2.023.426.048.2.023.192.01.432.023.218.01h.174l.468,0h.232l.138-.01.576-.038.232-.015.111-.013.174-.02.591-.084.144-.023.068-.013.275-.059.473-.1.336-.091.439-.125.094-.028.518-.183.076-.03.544-.234.158-.074.576-.3,61.865-35.949.1-.064.092-.058.155-.1.137-.092.145-.1.127-.094.132-.1.119-.1.122-.107.051-.046.043-.041.193-.193.064-.066.221-.257.008-.013.046-.061.119-.165.061-.092.094-.15.025-.041.031-.064.066-.127.051-.109.053-.13.025-.056.018-.053.041-.125.033-.112.03-.125.015-.066.008-.046.02-.13.015-.112.008-.127.005-.076,0-.074.028-10.465-.005.15" transform="translate(166.043 724.767)" fill="#fff"/><path d="M64.964-620.718l-.022,7.633c0,1.1.782,2.159,2.21,2.982l62.271,35.952a8.964,8.964,0,0,0,1.149.552l.2.074.49.168.286.089.09.023.118.028.5.122.337.069.432.076.365.051.407.046.375.031.416.023.207.01.019.623v-.623h.3l.3,0h.169l.187-.01.552-.036.121-.008.1-.008.272-.033.565-.079.138-.023.045-.008.153-.03.181-.038.4-.086.222-.059.1-.028.416-.117.07-.02.51-.178.072-.03.507-.216.148-.071.534-.28,62-36.031.318-.206.13-.091.341-.27.109-.094.036-.03.048-.048.173-.17.03-.033.214-.247.028-.033.122-.168.041-.064.086-.142.028-.041.02-.046.056-.107.041-.087.046-.107.018-.046.015-.046.033-.094.025-.091.025-.1.01-.046.008-.043.015-.1.013-.089.005-.1.005-.051,0-.069.02-7.638-.2.2-.1.1-.137.12-.127.107-.147.114-.14.1-.158.109-.147.1-.165.1-.216.132L141.527-583.54l-.618.325-.168.076-.58.249-.082.033-.645.221-.431.125-.122.033-.262.069-.456.1-.149.031-.25.051-.15.023-.619.086-.181.023-.252.023-.107.008-.6.041-.386.01-.326,0h-.16l-.408-.013-.45-.023-.412-.036-.444-.048-.4-.059-.472-.081-.371-.074-.555-.137-.1-.026-.254-.071-.152-.046-.586-.2-.158-.059-.651-.28-.064-.028c-.234-.112-.46-.229-.669-.348L66.561-619.49a7.119,7.119,0,0,1-1.6-1.228Zm69.857,49.171h-.05l-.144-.008-.081-.005-.452-.025-.066,0-.132-.008-.139-.015-.073-.008-.444-.051-.074-.008-.134-.015-.125-.02-.064-.013-.475-.081-.077-.013-.144-.025-.107-.028-.043-.01-.554-.135-.08-.02-.152-.038-.316-.1-.548-.188-.228-.084a9.864,9.864,0,0,1-1.315-.63L66.531-609.027c-1.83-1.055-2.835-2.5-2.831-4.06l.03-10.463v0a.622.622,0,0,1,.621-.618h0a.62.62,0,0,1,.62.623l.068.564a4.166,4.166,0,0,0,2.141,2.418l62.271,35.952.58.3.054.023.579.249.139.051.49.165.171.054.212.058.111.028.5.125.338.069.431.074.364.051.408.046.377.033.413.02.376.01.144,0,.3,0,.354-.01.552-.038.116-.008.213-.018.165-.02.566-.081.135-.02.209-.043.12-.025.042-.008.408-.086.221-.061.1-.025.416-.12.579-.2.067-.028.514-.219.146-.069.536-.28,61.864-35.952.147-.091.036-.02.511-.354.119-.094.107-.086.112-.1.071-.066.181-.178.056-.058.191-.224.046-.061.1-.14.033-.051.094-.153.048-.086.053-.1.043-.092.043-.1.094-.282.023-.1.02-.089.015-.1.01-.089.008-.1.005-.12a.622.622,0,0,1,.62-.618h0a.621.621,0,0,1,.62.62v.008h0v0l-.033,10.544-.005.081-.01.168-.015.12-.028.173-.008.056-.018.069-.041.163-.038.135-.048.145-.023.071-.025.059-.066.158-.058.125-.079.153-.038.071-.031.053-.107.173-.069.107-.14.188-.051.069-.028.036-.234.27-.046.051-.239.239-.053.051-.041.038-.147.127-.132.109-.142.112-.14.107-.16.109-.147.1-.168.107-.214.132L141.5-573.077l-.618.325-.167.079-.58.247-.078.033-.549.193-.082.026-.458.129-.113.031-.262.071-.444.094-.154.033-.186.041-.054.008-.168.028-.618.086-.3.036-.155.01-.086.005-.6.041-.044,0-.1.008h-.206l-.357.005-.166,0-.132,0" transform="translate(165.748 724.472)" fill="#231f20"/><path d="M202.732-607.877c3.343,1.93,3.361,5.06.036,6.992L140.9-564.934a13.292,13.292,0,0,1-12.071,0L66.562-600.885c-3.344-1.93-3.364-5.062-.04-6.995l61.864-35.949a13.3,13.3,0,0,1,12.075,0l62.271,35.952" transform="translate(166.057 705.329)" fill="#fff"/><path d="M134.908-643.751a11.153,11.153,0,0,0-5.509,1.309L67.535-606.493a3.278,3.278,0,0,0-1.966,2.588c0,.943.713,1.871,2,2.616l62.27,35.952a11.247,11.247,0,0,0,5.525,1.309,11.155,11.155,0,0,0,5.51-1.309l61.865-35.952a3.284,3.284,0,0,0,1.968-2.588c0-.941-.714-1.869-2-2.614l-62.27-35.952A11.256,11.256,0,0,0,134.908-643.751Zm.459,81.794a13.333,13.333,0,0,1-6.559-1.587L66.536-599.5c-1.956-1.132-3.035-2.7-3.037-4.4s1.061-3.257,3-4.381l61.864-35.952a13.237,13.237,0,0,1,6.549-1.589,13.34,13.34,0,0,1,6.562,1.587l62.271,35.952c1.955,1.129,3.033,2.693,3.036,4.4s-1.06,3.257-3,4.381l-61.864,35.952a13.243,13.243,0,0,1-6.55,1.589" transform="translate(165.565 704.837)" fill="#231f20"/><path d="M121.369-662.616h0l-.021.038-.048.135.048-.135Zm.272-.43h0l.086-.112Zm.88-.725h0l-.208.119Zm.435-.208-.007,0,.148-.064Zm1.918-.417h0a7.54,7.54,0,0,0-.809.091A7.462,7.462,0,0,1,124.874-664.4Zm.182-.013h0l.071-.005Zm.9.01h0l-.28-.015Zm1.129.137h0l.28.051Zm1.527.4h0l-.133-.046Zm1.087.447h0l-.155-.076-.138-.059h0l.138.059Zm.228.115h0l.337.183h0Zm1.089.669h0l-.039-.031-.527-.346h0l.527.346Zm1.119,1.045-.027-.036h0l-.236-.259-.1-.1-.367-.336h0l-.13-.1,0,0,.5.443Zm.1.137-.025-.036.171.229h0Zm.364.559h0l-.115-.2-.009-.015Zm.251,1.742.013-.071Zm-.091-1.376h0l-.084-.2-.005-.008.135.358Zm.1.359-.055-.191,0-.01.058.2Zm.05.351-.026-.186v0Zm0,.163h0l0,.181Zm-4.037-4.114h0l.282.109h0Zm-2.686-.615h0l.685.084Zm-3.552.544v0l.216-.1h0Zm-1.2,1.081h0l.1-.158Zm1.666,81.987,21.162-78.072L134-669.12l-17.226-1.861-6.952,8.413L90.724-591.3l.4-1.627A6.582,6.582,0,0,0,90.7-591.2l-.377,1.408.044.17a3.375,3.375,0,0,0,.125,1.238l1.857,6.171,4,13.3.615,2.047c2.419,9.407,8.73,2.339,8.73,2.339l.043-.041.192-.175c2.066-1.9,17.266-15.873,17.183-16.023" transform="translate(189.889 682.019)" fill="#231f20"/><path d="M133.841-656.1l-.539-.071a2.072,2.072,0,0,1-1.531-2l.038-.389.024-.125v-.028l-.006-.043-.008-.025,0-.005,0-.01-.039-.1-.007-.018-.023-.051-.031-.051-.013-.02,0-.005-.03-.051-.023-.041-.073-.094-.028-.036-.032-.046-.136-.15-.1-.109-.313-.272-.1-.086-.1-.066-.027-.02-.019-.013-.058-.041-.129-.086-.015-.01-.025-.018-.133-.081-.053-.033-.089-.048-.017-.01-.238-.13-.084-.046-.054-.023h0l0,0h0l0,0h0l0,0,0,0h0l0,0,0,0,0,0h0v0h0l-.229-.1-.1-.048-.1-.038,0,0-.191-.074-.006,0,0,0-.113-.046-.107-.033-.015-.005h0l-.1-.036.012-.033-.013-.01-.014.038.014-.038h0l-.014.036-.415-.188-.459-.043-.017-.005-.093-.015-.113-.02-.105-.02-.065-.01-.065-.01-.475-.056-.066-.008-.114-.005h0l-.108-.005-.007,0-.1-.005h0l-.212-.018-.16.015-.034,0-.054.005h-.053l-.093.008-.025,0-.5.056-.045.008h0l-.329.036-.248.117-.056.023-.026.013-.006,0-.014.005,0,0-.017.008-.009,0-.033.015-.1.046-.055.033-.012.005h0l-.115.064h0l-.009-.015h0l.008.015-.076.048-.069.091-.009.01-.005.008,0,.005v0a2.069,2.069,0,0,1-2.655,1.23,2.07,2.07,0,0,1-1.359-1.943,2.108,2.108,0,0,1,.127-.712l.1-.269.083-.168.051-.089.052-.1.188-.308.119-.158.064-.084.168-.209.521-.422.479-.427v0h0l.028-.018.176-.1.121-.066.047-.025.144-.081.214-.1.069-.031.077-.03.026-.013.056-.025.165-.071.068-.025h0l.676-.13.586-.219h.007l.007,0h0l.012,0h.008l.011-.005h.008l.009,0a9.211,9.211,0,0,1,1.033-.12l.088-.005.1-.008.056-.005.076-.005.343.018.341-.018.276.015.071.005.114.01.169.008c.268.023.548.058.831.1l.147.028.105.015.075.015.261.048a2,2,0,0,1,.649.254,2.131,2.131,0,0,1,.686.1l.107.038h0l.043.015-.008.023.016.005.008-.023.141.058.162.051.013.005.093.036.239.094.151.071.147.056.168.074.17.081.148.079.158.074.206.112.208.117.1.059.132.074h0l0,0,.236.148.427.29h0l.005.005.037.028.054.043.128.107.1.066.071.056.166.132.468.43.023.023.006.005.329.353.124.142.105.14.027.036.021.026,0,0,.021.028.009.01.167.224,0,0,.049.071.105.176.041.063.025.041.164.282h0l0,.008.087.193.032.066.02.043.126.3.086.277.005.015,0,.013.074.264v0l.012.053.038.234,0,.025.008.048.006.038.035.282h0v0l0,.036h0v.359l-.008.244,0,.048v.023l-.048.282-.013.1-.057.277v0a2.071,2.071,0,0,1-2,1.531Zm-11.72,75.684a2.074,2.074,0,0,0,.165,1.63,2.07,2.07,0,0,1-.188-1.546Zm-28.7-8.289-.006.224.043.481,6.476,21.513.023.081c.258,1,.979,3.333,2.11,3.333.948,0,2.4-1.111,3.078-1.861l.136-.137.235-.219c7.141-6.56,15.066-13.9,16.719-15.53l20.717-76.427-8.914-8.914-15.393-1.663-5.955,7.208L93.707-589.784l-.015.056-.013.049Zm8.646,29.771h0c-2.029,0-4.733-1.111-6.105-6.4L89.492-586.8a5.359,5.359,0,0,1-.223-1.63,2.063,2.063,0,0,1,.037-.908l.339-1.269a8.625,8.625,0,0,1,.564-2.161l.038-.081L108.8-662.118a2.068,2.068,0,0,1,.4-.783l6.951-8.413a2.068,2.068,0,0,1,1.819-.74l17.226,1.861a2.076,2.076,0,0,1,1.241.595l10.276,10.277a2.068,2.068,0,0,1,.534,2l-21.1,77.828a3.738,3.738,0,0,1-1.25,1.841c-.417.4-1.02.979-1.753,1.668-1.3,1.22-3.128,2.926-5.439,5.067-4.051,3.753-8.371,7.724-9.4,8.673l-.168.155c-.539.582-3.095,3.155-6.082,3.155" transform="translate(188.905 681.035)" fill="#231f20"/><path d="M127.618-662.256h0l0-.018.03-.168.028-.155,0-.186,0-.158-.026-.191-.023-.16-.058-.2-.048-.158-.09-.206-.07-.16-.128-.216-.089-.15-.178-.236-.1-.13-.333-.364-.367-.336-.133-.107-.23-.183-.03-.02-.566-.376-.047-.031-.139-.079-.337-.183-.09-.051-.138-.063-.293-.135-.118-.056-.132-.051-.282-.109-.134-.053-.127-.043-.291-.094-.146-.046-.118-.033-.318-.084-.159-.041-.1-.02-.4-.079-.162-.031-.05-.008-.687-.084-.033-.005-.2-.01-.339-.015h-.245l-.322.005h-.069l-.113.013-.5.051-.185.025-.623.13-.082.023-.176.061-.247.084-.2.084-.219.1-.044.02-.077.049-.318.2-.07.046-.055.046-.191.168-.081.069-.032.038-.133.16-.079.091-.02.033-.1.16-.065.109-.012.028-.07.178-.046.117-.014.051-19.846,73.16h0a3.011,3.011,0,0,0,1.073,2.858l.366.336.132.1.23.186.03.018.566.379.046.028.139.079.337.183.091.051.139.063.291.135.118.056.133.051.281.112.134.051.128.043.291.094.145.046.118.033.32.084.158.041.1.02.4.079.161.031.051.008c.229.036.458.064.685.084l.033.005.2.01.34.015h.243l.324-.005h.069l.114-.013.5-.051.185-.025.623-.13.082-.023.177-.061.246-.084.2-.084.217-.1.044-.02.079-.048.317-.2.069-.043.056-.051.191-.165.081-.069.033-.041.133-.158.078-.092.02-.033.1-.16.065-.109.012-.031.07-.178.046-.114.015-.051h0s18.081-66.651,19.44-71.662l-.167.615c.191-.7.382-1.411.573-2.113" transform="translate(195.123 685.142)" fill="#fff"/><path d="M117.01-665.22l-.014.033-.039.1-.042.107-19.859,73.2a2.433,2.433,0,0,0,.913,2.255l.329.3.179.142.153.122.548.364.056.038.116.061.312.17.212.107.276.127.235.1.262.1.245.086.274.092.248.074.3.079.239.056.375.074.2.038.636.079.052.005.164.008.318.015.065,0,.162,0,.3-.005h.058l.111-.01.459-.046.167-.025.561-.117.071-.02.071-.023.132-.046.171-.058.118-.051.093-.041.145-.066.03-.013.071-.046.26-.163.056-.036.043-.036.148-.13.062-.053.032-.036.093-.112.056-.066.02-.031.052-.086.057-.1,0,.013.016-.038.039-.1.042-.107h0l.011-.046c.195-.715,18.087-66.668,19.439-71.654v-.005l.44-1.693.008-.107v-.061l0-.112-.01-.076-.026-.183-.026-.089-.041-.137-.014-.051-.045-.1-.061-.137-.025-.056-.069-.12-.08-.132-.032-.053-.119-.158-.116-.155-.295-.323-.33-.3-.182-.148-.15-.117-.548-.366-.055-.036-.116-.061-.314-.173-.213-.107-.273-.127-.235-.1-.263-.1-.246-.089-.273-.089-.249-.074-.3-.079-.239-.056-.375-.074-.2-.038-.643-.079-.052-.005-.165-.008-.315-.018h-.065l-.163,0-.3.005h-.053l-.116.01-.46.046-.169.025-.56.117-.069.02-.071.023-.139.046-.164.056-.113.048-.058.025-.186.086-.031.015-.07.041-.261.165-.056.036-.044.036-.149.132-.061.051-.028.03-.094.115-.059.069-.016.025-.058.1-.056.092Zm-13.243,79.178h-.1l-.336-.018-.1-.005-.143-.008-.054-.008c-.225-.018-.468-.048-.711-.086l-.05-.008-.12-.023-.054-.01-.423-.084-.1-.02-.111-.031-.054-.013-.338-.089-.126-.033-.105-.036-.049-.015-.308-.1-.278-.1-.3-.117-.23-.094-.038-.018-.312-.145-.044-.02-.1-.048-.079-.043-.379-.208-.044-.023-.1-.058-.061-.041-.6-.4-.23-.178-.1-.076-.1-.081-.4-.371a3.591,3.591,0,0,1-1.233-3.458l19.864-73.226.052-.135.589.2-.573-.239.072-.183.026-.059.072-.127.122-.2.039-.061.085-.1.179-.211.042-.048.092-.084.236-.2.069-.061.1-.061.36-.224.094-.058.064-.028.2-.094.083-.036.173-.074.23-.079.1-.036.145-.046.065-.018a6.3,6.3,0,0,1,.711-.153l.162-.023.585-.061.122-.013h.061l.347-.005.182,0,.1,0,.334.015.1.005.139.008.055.008c.223.018.466.048.71.086l.049.008.121.023.054.01.424.084.1.02.112.028.058.015.337.089.125.033.106.036.049.015.309.1.278.1.3.117.045.015.1.041.087.041.35.16.045.023.1.046.076.043.38.208.045.023.1.059.063.041.6.4.227.175.1.081.1.081.4.371.371.4.083.109.059.079.171.231.078.13.058.094.116.2.068.148.041.091.084.2.047.155.027.089.055.2.025.163.012.086.025.2v.242l-.006.2-.027.168-.013.076-.035.18-.42,1.548-.159.585,0,.008c-2.26,8.337-19.095,70.393-19.269,71.034l0,.005-.019.066-.051.135-.59-.2.574.239-.073.183-.026.061-.072.125-.55-.29.527.328-.1.168-.039.058-.086.107-.177.208-.042.048-.093.084-.236.2-.068.058-.1.064-.36.224-.093.056-.063.03-.2.091-.083.036-.181.076-.234.081-.1.033-.146.048-.089.023a6.716,6.716,0,0,1-.686.145l-.186.028-.559.056-.123.013h-.068l-.341.007h-.18" transform="translate(194.826 684.846)" fill="#231f20"/><path d="M112.173-662.753c-.068.244-.134.493-.2.737.067-.247.133-.493.2-.737" transform="translate(209.527 689.481)" fill="#fff"/><path d="M112.268-661.1l-.163-.02a.62.62,0,0,1-.437-.76l.018-.066.184-.674a.619.619,0,0,1,.762-.437.619.619,0,0,1,.436.76l-.2.74a.62.62,0,0,1-.6.458" transform="translate(209.231 689.185)" fill="#231f20"/><path d="M117.108-665.108c1.923,1.922,1.364,4.058-1.25,4.765a9.372,9.372,0,0,1-8.216-2.2c-1.924-1.925-1.366-4.058,1.249-4.767a9.371,9.371,0,0,1,8.218,2.2" transform="translate(204.561 685.139)" fill="#100f0d"/><path d="M111.036-666.624a6.5,6.5,0,0,0-1.686.208,2.4,2.4,0,0,0-1.887,1.48,2.439,2.439,0,0,0,.915,2.248,8.86,8.86,0,0,0,5.927,2.248,6.5,6.5,0,0,0,1.686-.206,2.409,2.409,0,0,0,1.887-1.482,2.43,2.43,0,0,0-.913-2.245,8.857,8.857,0,0,0-5.929-2.25ZM114.3-659.2a10.042,10.042,0,0,1-6.8-2.611,3.6,3.6,0,0,1-1.237-3.448,3.572,3.572,0,0,1,2.761-2.359,7.775,7.775,0,0,1,2.011-.249,10.028,10.028,0,0,1,6.807,2.614,3.59,3.59,0,0,1,1.235,3.443,3.569,3.569,0,0,1-2.762,2.359,7.761,7.761,0,0,1-2.011.252" transform="translate(204.265 684.845)" fill="#231f20"/><path d="M131.357-664.616,110.2-586.544l-5.634,3.5,19.62-73.221,7.176-8.355" transform="translate(202.805 687.792)" fill="#fff"/><path d="M125.04-655.668,105.862-584.1l4.093-2.543,20.38-75.188Zm-20.184,73.544-.369-.122a.619.619,0,0,1-.23-.658l19.62-73.223.129-.244,7.176-8.352a.62.62,0,0,1,.761-.145.621.621,0,0,1,.309.712L111.09-586.086l-.271.366-5.634,3.5-.328.094" transform="translate(202.51 687.496)" fill="#231f20"/><path d="M120.1-656.292,100.13-582.685l-7.784-3.529-2.027-7.579,19.5-72.776L120.1-656.292" transform="translate(189.889 686.02)" fill="#fff"/><path d="M93.7-586.462l6.229,2.825,19.491-71.855-8.586-8.584L91.865-593.3Zm6.909,5.3-.427-.092-7.784-3.529a1.04,1.04,0,0,1-.572-.676L89.8-593.035v-.534l19.5-72.776a1.042,1.042,0,0,1,.732-.732,1.038,1.038,0,0,1,1,.27L121.3-656.53a1.031,1.031,0,0,1,.267,1L101.6-581.921a1.027,1.027,0,0,1-.557.664l-.441.1" transform="translate(189.414 685.528)" fill="#231f20"/><path d="M132.376-659.348l-19.62,73.221-17.229-1.861,19.62-73.223,17.229,1.864" transform="translate(194.611 690.879)" fill="#fff"/><path d="M97.33-588.4l15.147,1.637,19.078-71.2L116.408-659.6Zm15.918,3.8-.112-.005L95.908-586.47a1.027,1.027,0,0,1-.743-.442,1.04,1.04,0,0,1-.146-.854l19.62-73.221a1.035,1.035,0,0,1,1.11-.76l17.229,1.861a1.037,1.037,0,0,1,.742.445,1.032,1.032,0,0,1,.146.852l-19.619,73.221a1.036,1.036,0,0,1-1,.768" transform="translate(194.12 690.387)" fill="#231f20"/><path d="M113.04-659.423a9.373,9.373,0,0,0,8.216,2.2c2.614-.707,3.173-2.843,1.25-4.765a9.372,9.372,0,0,0-8.218-2.2c-2.614.709-3.172,2.843-1.249,4.767Zm21.96.58-6.949,8.416-17.229-1.864-10.277-10.277,6.952-8.413,17.226,1.861L135-658.843" transform="translate(199.163 682.019)" fill="#fff"/><path d="M116.63-662.891a6.113,6.113,0,0,0-1.578.193c-.876.237-1.457.671-1.595,1.188a2.091,2.091,0,0,0,.807,1.848,8.439,8.439,0,0,0,5.634,2.128,6,6,0,0,0,1.578-.2c.877-.237,1.458-.669,1.6-1.187a2.092,2.092,0,0,0-.805-1.846A8.426,8.426,0,0,0,116.63-662.891Zm3.268,7.424h0a10.462,10.462,0,0,1-7.1-2.731,3.992,3.992,0,0,1-1.344-3.847,3.964,3.964,0,0,1,3.053-2.652,8.153,8.153,0,0,1,2.119-.264,10.475,10.475,0,0,1,7.1,2.733,3.991,3.991,0,0,1,1.342,3.844,3.959,3.959,0,0,1-3.054,2.652A8.152,8.152,0,0,1,119.9-655.467Zm-8.111,2.68,16.312,1.762,6-7.259-9.354-9.354-16.31-1.762-6,7.259Zm16.755,3.885-.111-.005L111.2-650.768a1.031,1.031,0,0,1-.621-.3l-10.276-10.277a1.035,1.035,0,0,1-.066-1.391l6.952-8.413a1.031,1.031,0,0,1,.908-.371l17.227,1.864a1.026,1.026,0,0,1,.62.3l10.277,10.277a1.031,1.031,0,0,1,.066,1.388l-6.949,8.416a1.033,1.033,0,0,1-.8.374" transform="translate(198.671 681.526)" fill="#231f20"/><path d="M91.108-630.051s-1.994,4.556,2.284,6.949c4.318,2.413,7.741-1.017,8.925-.72,1.247.313,1.84,5.532,7.48,6.908,5,1.22,8.7-3.773,9.419-3.455.6.264.78-1.167,2.046,1.025a3.625,3.625,0,0,0,1.837,1.452l-17.418,16.239s-6.311,7.068-8.73-2.339L90.477-625.5a3.385,3.385,0,0,1-.008-1.925l.64-2.621" transform="translate(189.901 719.14)" fill="#fff"/><path d="M92.97-621.951,98.436-603.8l.011.041c.7,2.728,1.748,4.111,3.111,4.111,1.542,0,3.3-1.589,3.846-2.2l.072-.074c5.622-5.164,13.741-12.659,16.425-15.233a4.023,4.023,0,0,1-1.042-1.177,5.535,5.535,0,0,0-.394-.608,1.5,1.5,0,0,1-.738.124c-.188.125-.485.359-.736.552-1.477,1.149-3.949,3.071-7.113,3.071a7.852,7.852,0,0,1-1.833-.221c-4.28-1.045-5.957-4.083-6.959-5.9a11.121,11.121,0,0,0-.576-.969c-.231.074-.63.252-.937.389a10.771,10.771,0,0,1-4.487,1.182,7.532,7.532,0,0,1-3.7-1Zm8.587,24.373c-1.667,0-3.9-.979-5.109-5.645l-6.471-21.492a4.4,4.4,0,0,1-.016-2.489l.19-.78a7.416,7.416,0,0,1,.5-1.988,1.038,1.038,0,0,1,1.278-.567,1.036,1.036,0,0,1,.674,1.226l-.41,1.686a3.971,3.971,0,0,0,2.194,4.117,5.416,5.416,0,0,0,2.694.732,8.884,8.884,0,0,0,3.641-1,5.027,5.027,0,0,1,1.923-.6l.414.048c.834.211,1.275,1.009,1.833,2.021.947,1.711,2.242,4.058,5.639,4.887a5.719,5.719,0,0,0,1.343.163c2.454,0,4.494-1.587,5.843-2.634.825-.643,1.324-1.03,1.914-1.03l.148.008a1.649,1.649,0,0,1,.78-.211c.943,0,1.56.847,2.089,1.762a2.28,2.28,0,0,0,1.194.943,1.189,1.189,0,0,1,.649.516c.408.725-.03,1.149-.9,2-.474.457-1.153,1.1-1.972,1.871-1.443,1.355-3.46,3.234-6,5.581-4.138,3.829-8.286,7.64-8.709,8.029-.4.437-2.724,2.853-5.353,2.853" transform="translate(189.409 718.647)" fill="#231f20"/><path d="M93.482-617.459l.615,2.047c2.419,9.407,8.73,2.339,8.73,2.339s.637-.585,1.666-1.533a49.774,49.774,0,0,1-11.011-2.853" transform="translate(192.757 730.56)" fill="#231f20"/><path d="M94.717-616.171l.257.854c.761,2.96,1.943,4.447,3.518,4.447,2.032,0,4.135-2.319,4.155-2.342l.044-.043.707-.651a50.967,50.967,0,0,1-8.681-2.266Zm3.776,6.542h0c-2.215,0-3.8-1.8-4.714-5.352L93.17-617l.172-.633.644-.127a49.329,49.329,0,0,0,10.871,2.817.625.625,0,0,1,.511.43.619.619,0,0,1-.172.643l-1.645,1.513c-.264.29-2.568,2.731-5.057,2.731" transform="translate(192.474 730.284)" fill="#231f20"/></g></svg>