<svg xmlns="http://www.w3.org/2000/svg" width="145.376" height="148.841" viewBox="0 0 145.376 148.841"><g transform="translate(406 -410.816)"><path d="M205.215-441.024l-.025.112-.028.125-.033.112-.008.02.1-.409Zm-.127.473-.043.109-.053.13-.051.109-.008.015.168-.4Zm-.272.58-.094.15-.058.092,0,.005.239-.4-.025.051Zm-.328.478-.147.173.282-.353-.079.109Zm-.282.323-.2.193-.092.086-.02.018.381-.376-.013.015Zm-.529.486-.135.1-.127.1-.02.015.442-.351-.043.038Zm-.542.394-.155.1-.2.12.542-.348-.053.038Zm-63.5,36.781.082-.036Zm-3.013.732.072-.01Zm-3.15.036h.023Zm-3.182-.707.1.033-.1-.033Zm-.151-.056,0,0h0Zm-1.3-.613.626.325h0ZM65.554-438.786l.324.254Zm.48.371.542.346Zm-.9-.768.265.259Zm-.754-1.06-.139-.325Zm.3.519-.254-.417Zm.324.407-.249-.31Zm-.944-2.2.033.369Zm.057.5.076.3-.05-.158Zm141.141-.376-.01.127-.013.112-.005.028c.209-1.409-.618-2.86-2.484-3.938l-62.271-35.952a13.309,13.309,0,0,0-12.075,0L66.537-445.064c-1.658.964-2.483,2.225-2.48,3.486v-.013l-.03,10.463c0,1.274.837,2.55,2.521,3.521l62.271,35.952a9,9,0,0,0,1.231.59l.069.025.149.056.519.175.179.056.121.038.219.053.53.13.141.036.213.035.452.079.182.033.2.02.426.048.2.023.192.01.432.023.218.013h.174l.468,0,.232,0,.138-.008.576-.038.232-.018.111-.013.174-.02.591-.084.144-.023.068-.01.275-.058.473-.1.336-.092.439-.125.094-.028.518-.183.076-.031.544-.231.158-.074.576-.3,61.864-35.952.1-.061.092-.061.155-.1.137-.094.145-.1.127-.1.132-.1.12-.1.122-.107.051-.043.043-.043.193-.193.064-.064.221-.259.008-.01.046-.061.12-.165.061-.092.094-.153.025-.041.031-.061.066-.13.051-.107.053-.13.025-.059.018-.051.041-.125.033-.112.031-.125.015-.069.008-.046.02-.127.015-.112.008-.13.005-.076,0-.074.028-10.465-.005.153" transform="translate(-467.957 947.799)" fill="#fff"/><path d="M131.377-398.362a2.041,2.041,0,0,1-.7-.122l-.067-.023-.045-.015-.071-.028-.029-.01-.1-.036-.377-.2-.21-.061-.209-.084c-.272-.13-.533-.267-.777-.407a2.07,2.07,0,0,1-.755-2.827,2.068,2.068,0,0,1,2.826-.755h0l0,0,.476.247.249.14.2.058.1.036.024.01.064.02.1.033a2.069,2.069,0,0,1,1.37,1.948,2.081,2.081,0,0,1-.121.7,2.072,2.072,0,0,1-1.948,1.37Zm3.109.674-.224-.013.164-1.536v.008l.191-2.593h0l.088.008h.006a2.084,2.084,0,0,1,1.321.684,2.069,2.069,0,0,1,1.314-.714l.027,0,.054-.008h0a2.054,2.054,0,0,1,1.388.323,2.062,2.062,0,0,1,1.015-.905l.1-.043a2.069,2.069,0,0,1,2.691,1.149,2.065,2.065,0,0,1,.15.77,2.068,2.068,0,0,1-1.3,1.92l0,0-.077.033-.006,0a2.068,2.068,0,0,1-1.9-.191,2.065,2.065,0,0,1-1.532,1.043l-.107.015-.04,0,0,0h-.018a2.066,2.066,0,0,1-1.726-.689,2.066,2.066,0,0,1-1.577.732Zm-1.093,6.153.165.028.382.066.15.025.178.02.364.041.34.028.372.02.18.01h.279l.278,0h.187l.131-.008.493-.036.167-.01.273-.031.505-.071.078-.013.062-.01.062-.01.208-.046.047-.008.352-.076.176-.046.1-.031.363-.1.108-.033.389-.137.057-.023.433-.186.119-.056.441-.231,61.937-35.992.72-.526.025-.023.018-.018.135-.132.036-.038.117-.135,0-.005.028-.038.058-.079.028-.043.046-.074.01-.018.023-.041.061-.132.01-.025.008-.023.033-.12.005-.015.008-.058.008-.066,0-.048.013-4.945a2.067,2.067,0,0,1-2.184-.992,2.068,2.068,0,0,1,.748-2.827l.008-.005.109-.066.038-.023.18-.119.058-.041.038-.025.01-.008.01-.008.084-.064.2-.165.028-.023.01-.01.071-.066.114-.112.036-.038.043-.051.135-.165.005-.008h0l0,0v0h0l.036-.046.02-.036.008-.01.053-.092.02-.038.015-.028.066-.158,0-.01,0-.008.033-.132v-.005c.084-.58-.481-1.281-1.47-1.854l-62.271-35.952a10.349,10.349,0,0,0-5.011-1.172,10.263,10.263,0,0,0-4.99,1.169L68.56-442.293c-.886.516-1.423,1.131-1.449,1.653l0,.058.01.107v0l.007.036.026.1.016.056.054.122.036.076.083.137.056.071.134.168,0,0,.021.023.054.053.166.163.05.046.047.038,0,0h0l.217.17.078.061.03.02.379.242.014.01h0a2.068,2.068,0,0,1,.757,2.825,2.069,2.069,0,0,1-2.258.984l-.014,4.93c0,.542.553,1.187,1.486,1.724l62.27,35.952a7.042,7.042,0,0,0,.941.453l.2.071.415.142.041.013.21.066.181.041.442.109Zm2.117,4.378-.085,0-.2-.008-.045-.005-.494-.025-.221-.013-.2-.02-.518-.059-.229-.025-.2-.033-.537-.094-.247-.043-.178-.043-.6-.147-.256-.064-.129-.041-.188-.058c-.244-.076-.45-.148-.652-.221l-.182-.066-.08-.031a11.219,11.219,0,0,1-1.5-.722L66.5-424.83c-2.264-1.307-3.561-3.247-3.554-5.319l.03-10.465,0-.076a6.306,6.306,0,0,1,3.508-5.179l61.865-35.952a14.288,14.288,0,0,1,7.069-1.727,14.393,14.393,0,0,1,7.079,1.724l62.272,35.952a6.36,6.36,0,0,1,3.549,5.187l0,.125v.013l-.031,10.577-.01.173-.015.186-.02.17-.031.2-.02.12-.031.14-.043.173-.056.193-.058.181-.046.13-.046.107-.074.175-.081.175-.1.2-.058.107-.053.089-.127.206-.092.137-.178.247-.066.089-.038.046-.295.346-.076.076-.257.259-.089.086-.081.071-.147.13-.163.135-.178.14-.168.125-.186.13-.173.117-.2.127-.252.155-61.862,35.949c-.209.122-.436.242-.714.376l-.19.089-.662.282-.1.041-.609.216-.139.041-.467.132-.1.028-.311.084-.511.109-.105.023-.251.053-.1.015-.11.018c-.262.043-.489.074-.716.1l-.322.038-.229.018-.044,0-.657.043-.155.01-.148,0-.119,0-.353.005-.179,0-.113,0" transform="translate(-468.941 946.815)" fill="#231f20"/><path d="M205.259-460.831l-.01.127-.013.112-.02.13-.025.112-.028.125-.033.112-.041.125-.043.109-.053.13-.051.109-.066.127-.059.1-.094.15-.058.092-.12.165-.056.071-.221.259-.061.064-.2.193-.092.087-.125.109-.117.1-.135.1-.127.1-.142.1-.137.092-.155.1-.2.12-61.864,35.952-.576.3-.157.074-.545.234-.074.031-.613.208-.44.127-.335.089-.473.1-.344.069-.144.025-.591.081-.174.023-.344.028-.577.038-.37.01-.467,0-.391-.01-.432-.023-.4-.033-.425-.048-.382-.053-.452-.079-.355-.071-.529-.13-.34-.092-.18-.056-.518-.178-.148-.053-.617-.264-.058-.025-.625-.325L66.577-457.508a4.753,4.753,0,0,1-2.433-2.807,3,3,0,0,1-.087-.715l-.03,10.463c0,1.274.837,2.55,2.521,3.521l62.271,35.952a9,9,0,0,0,1.231.59l.069.025.149.056.519.175.179.056.121.038.219.053.53.13.141.036.213.036.452.079.182.033.2.02.426.048.2.023.192.01.432.023.218.013h.174l.468,0,.232,0,.138-.008.576-.038.232-.018.111-.013.174-.02.591-.084.144-.023.068-.01.275-.059.473-.1.336-.091.439-.125.094-.028.518-.183.076-.031.544-.231.158-.074.576-.3,61.865-35.952.1-.061.092-.061.155-.1.137-.094.145-.1.127-.1.132-.1.119-.1.122-.107.051-.043.043-.043.193-.193.064-.064.221-.259.008-.01.046-.061.119-.165.061-.092.094-.153.025-.041.031-.061.066-.13.051-.107.053-.13.025-.058.018-.051.041-.125.033-.112.03-.125.015-.069.008-.046.02-.127.015-.112.008-.13.005-.076,0-.074.028-10.465-.005.153" transform="translate(-467.957 967.238)" fill="#fff"/><path d="M64.964-457.9l-.022,7.635c0,1.1.782,2.156,2.21,2.982l62.271,35.952a8.573,8.573,0,0,0,1.149.549l.2.076.489.165.286.089.088.023.119.028.5.125.135.033.092.015.109.018.432.076.365.051.407.046.377.033.415.02.206.013.019.62v-.62l.119,0,.173,0,.3-.005h.06l.108,0,.187-.01.552-.038.122-.008.1-.008.272-.03.565-.081.136-.02.046-.008.157-.033.125-.028.042-.008.408-.086.222-.061.1-.025.416-.119.071-.02.507-.178.07-.028.511-.219.146-.069.536-.28L202.92-447.4l.511-.353.122-.094.216-.183.033-.031.046-.043.175-.175.031-.031.214-.249.031-.036.119-.165.036-.056.092-.147.028-.046.02-.041.056-.107.041-.086.046-.107.018-.048.015-.043.033-.1.025-.092.025-.1.01-.046.008-.041.015-.1.013-.087.005-.1.005-.053,0-.069.02-7.635-.2.2-.1.094-.14.122-.127.107-.147.114-.14.107-.158.109-.147.1-.168.1-.041.025-.173.1-61.863,35.952-.618.325-.168.079-.579.247-.077.031-.65.224-.443.127-.119.033-.253.069-.444.094-.161.033-.251.051-.149.023L137-419.3l-.184.02-.252.023-.1.008-.6.041-.387.01-.326,0h-.16l-.408-.01-.45-.025-.412-.033-.444-.051-.4-.056-.474-.081-.371-.076-.555-.135-.1-.025-.264-.071-.186-.059-.55-.188-.156-.058-.654-.28-.063-.025c-.236-.112-.462-.231-.67-.351L66.561-456.675a7.119,7.119,0,0,1-1.6-1.228Zm69.857,49.17h-.05l-.144-.008-.081-.005-.451-.023-.07-.005-.129-.008-.141-.013-.071-.01-.443-.048-.076-.008-.134-.018-.128-.02-.063-.013-.473-.081-.076-.013-.146-.025-.107-.026-.042-.01-.555-.137-.078-.018-.153-.038-.277-.086-.587-.2-.228-.084a10.167,10.167,0,0,1-1.315-.631L66.531-446.21c-1.83-1.058-2.835-2.5-2.831-4.063l.03-10.46v0a.622.622,0,0,1,.621-.62h0a.622.622,0,0,1,.62.623l.068.564a4.152,4.152,0,0,0,2.141,2.418L129.452-421.8l.58.3.054.025.579.247.139.051.49.168.169.051.222.061.1.025.5.125.339.069.431.074.364.053.408.046.378.031.412.023.377.01h.143l.3,0,.354-.01.552-.036.112-.01.217-.018.167-.02.564-.079.138-.023.206-.041.172-.036.4-.086.213-.056.106-.031.416-.117.578-.2.071-.031.51-.216.146-.071.534-.28,61.865-35.952.14-.086.554-.376.119-.094.3-.262.17-.17.028-.031.219-.249.046-.064.1-.14.033-.053.094-.15.048-.086.053-.1.043-.092.043-.1.094-.28.023-.1.02-.089.015-.1.01-.086.008-.1.005-.117a.623.623,0,0,1,.62-.62h0a.623.623,0,0,1,.62.62v0h0v.008h0l-.033,10.544-.005.084-.01.168-.015.12-.028.173-.008.053-.018.071-.041.163-.038.135-.048.145-.023.066-.025.061-.066.158-.059.127-.079.15-.036.071-.033.056-.107.17-.069.107-.14.191-.051.069-.033.038-.229.267-.046.048-.242.242-.048.046-.043.038-.147.13-.13.109-.147.114-.137.1-.158.109-.15.1-.168.107-.214.13L141.5-410.262l-.618.323-.167.079-.58.249-.081.033-.547.193-.081.023-.458.13-.112.033-.263.069-.456.1L138-409l-.19.041-.055.008-.167.028-.619.087-.3.036-.159.013-.085.005-.6.038-.043.005-.1.005-.1,0h-.108l-.364,0h-.292" transform="translate(-468.252 966.941)" fill="#231f20"/><path d="M202.732-445.064c3.343,1.93,3.361,5.06.036,6.992L140.9-402.12a13.3,13.3,0,0,1-12.071,0L66.562-438.069c-3.344-1.932-3.364-5.062-.04-6.995l61.864-35.952a13.309,13.309,0,0,1,12.075,0l62.271,35.952" transform="translate(-467.943 947.799)" fill="#fff"/><path d="M134.908-480.937a11.149,11.149,0,0,0-5.509,1.309L67.535-443.676a3.275,3.275,0,0,0-1.966,2.588c0,.941.712,1.869,2,2.614l62.27,35.952a11.245,11.245,0,0,0,5.525,1.309,11.153,11.153,0,0,0,5.51-1.309l61.864-35.952a3.28,3.28,0,0,0,1.968-2.588c0-.941-.714-1.869-2-2.614l-62.27-35.952A11.255,11.255,0,0,0,134.908-480.937Zm.459,81.794a13.332,13.332,0,0,1-6.559-1.587L66.536-436.681c-1.956-1.129-3.035-2.693-3.037-4.4s1.061-3.257,3-4.381l61.864-35.952a13.237,13.237,0,0,1,6.549-1.589,13.317,13.317,0,0,1,6.562,1.589l62.271,35.952c1.955,1.129,3.033,2.693,3.036,4.4s-1.06,3.257-3,4.381l-61.864,35.952a13.24,13.24,0,0,1-6.55,1.589" transform="translate(-468.435 947.306)" fill="#231f20"/><path d="M119.519-390.914h0l21.376-79.773a11.293,11.293,0,0,0-2.48-10l.415.453.025.031.364.465.039.056.329.488.037.058.308.534.022.041.3.6.008.018.265.625.016.043.2.559.119.386.093.313.04.155.127.537.014.061.119.659,0,.031.079.646,0,.046.042.656v.656l0,.061-.042.618,0,.018-.086.61-.009.048-.132.587Zm-9.808-117.517,0,0-.034-.008Zm.257.061-.07-.018.064.015Zm.23.071-.078-.025.073.023Zm.221.087-.077-.031.072.028Zm.22.1-.072-.033.067.031Zm.212.117-.057-.033.054.03Zm.222.135-.057-.036.053.033Zm.269.188h0l-.106-.076.088.064Zm.207.163-.09-.071.088.069Zm.2.175-.056-.048.055.048Zm34.915,34.983.054-.244.022-.117.009-.048.015-.084.039-.252.032-.262v-.028l.022-.236.017-.277,0-.107,0-.059,0-.114,0-.287-.006-.221v-.066l-.014-.282-.021-.282-.006-.061,0-.043-.017-.17-.033-.272-.03-.2,0-.033-.005-.033-.046-.275-.058-.3-.01-.048-.013-.061-.053-.239-.077-.3-.039-.153-.015-.061-.077-.252-.12-.389-.019-.064-.182-.5-.016-.043v-.005l-.146-.353-.118-.267-.008-.018,0-.01-.134-.28-.138-.272-.019-.036-.022-.038-.107-.2-.156-.267-.046-.074-.036-.058-.084-.132-.171-.257-.072-.1-.04-.056-.063-.086-.175-.226-.125-.15-.026-.033-.025-.028-.174-.2-.177-.186-.042-.041-26.4-26.4-.134-.132-.054-.048-.069-.064-.053-.048-.092-.076-.062-.053-.024-.02-.178-.137,0,0-.019-.013-.161-.115-.027-.018-.068-.046-.088-.056-.052-.031-.082-.048-.06-.036-.071-.036-.083-.043-.04-.02-.083-.038-.1-.046-.03-.013-.085-.033-.105-.041-.028-.01-.073-.02-.129-.041-.033-.01-.057-.013-.163-.036-.046-.01-.038,0-.239-.028-.027-.005h-.005l-.345,0h-.031l-.026.005-.149.018-.071.01-.217.048-5.505,1.492.01,0a3.642,3.642,0,0,0-2.351,2.835L84.591-425.841a11.512,11.512,0,0,0,2.694,10.053l26.4,26.4a3.671,3.671,0,0,0,3.508,1.3l-.015.005,5.505-1.492.347-.125.1-.048.238-.132.1-.066.256-.2.053-.043.013-.01.283-.295,0-.005.021-.025.173-.224.07-.107.045-.069.044-.064.135-.239.042-.084.028-.056.046-.094.1-.229.05-.127.018-.048.023-.058.078-.231.069-.239,0-.013,21.587-79.719.058-.226" transform="translate(-449.559 922.853)" fill="#fff"/><path d="M110.044-505.414c-.255.071-.64.473-.885,1.378L87.572-424.319a9.485,9.485,0,0,0,2.16,8.052l26.4,26.4a2.126,2.126,0,0,0,1.359.786l.13-.018h0l.081-.02.815-.221a2.054,2.054,0,0,1-.015-1.126L139.88-470.24a9.294,9.294,0,0,0-1.8-7.851l-.009-.008-.135-.142a2.07,2.07,0,0,1,0-2.927,2.07,2.07,0,0,1,2.926,0h0v0l.228.236.018.02h0l.282.318.041.048.441.567.051.071.4.595.035.053.378.653.03.056c.119.224.236.46.347.7l.017.038c.109.239.21.476.3.715l.025.066.227.633.121.389.045.15.081.28.045.173.149.625.013.061c.056.267.1.524.141.778l.008.051c.036.239.067.491.091.742l.007.076c.022.236.038.5.047.753v.048c.008.242.007.491,0,.737l0,.076c-.009.254-.026.506-.051.753v.005l0,.036c-.024.234-.059.488-.105.74l-.008.046c-.053.285-.108.529-.173.768L122.8-390.5l.326-.089.06-.025.022-.01.052-.031.036-.02.064-.051.054-.046.048-.051.007-.008.03-.038.075-.094.034-.053.023-.036.034-.051.063-.112.019-.038.021-.043.031-.061.057-.132.026-.071.037-.1.044-.132.049-.163.013-.048L145.6-471.682l.041-.16.037-.173.017-.092.018-.092.03-.2.024-.2,0-.056.013-.15.014-.219,0-.079,2.07.013-2.068-.068,0-.053,0-.262,0-.178v-.043l-.011-.244-.018-.229,0-.046,2.056-.234-2.06.191-.014-.14-.027-.219-.025-.17-.006-.046-.005-.031-.035-.206-.049-.254-.009-.041-.055-.254-.042-.16-.055-.214-.02-.079-.076-.242-.083-.27-.025-.079-.143-.389-.023-.064-.111-.27-.1-.221-.019-.041h0l-.1-.214-.112-.219-.034-.063-.084-.155-.129-.219-.029-.048-.1-.155-.136-.2-.056-.076,1.643-1.261-1.67,1.22-.042-.059-.144-.186-.122-.148-.134-.153-.124-.13-.032-.033-26.583-26.572-.041-.038-.048-.038,1.276-1.632-.519.625-.642.819-.1.17-.023-.013-.009.01-.028-.02h0l-.021-.018-.086-.069h0l-.021-.015-.089-.063-.022-.015,1.08-1.767-1.126,1.737-.048-.031.018.01-.048-.028-.043-.025-.042-.025-.078-.041-.021-.01-.031-.013-.236-.089-.019-.005-.067-.015-.017,0-.022,0-.056-.008h-.085l-.014,0-.032,0-.016,0-.8.216a2.065,2.065,0,0,1-.5,1.731,2.069,2.069,0,0,1-2.843.219l-.073-.064-.036-.031,0-.005-.059-.053-.03-.023h0l0,0h0l0,0,0,0h0l-.066-.051-.046-.038-.014-.01-.064-.043-.007-.005-.053-.038-.035-.023-.039-.025-.054-.033-.029-.018-.041-.023-.01-.005-.008-.005-.03-.015-.024-.013-.037-.018-.054-.025-.014-.005-.049-.02-.039-.015-.009-.005-.064-.02-.025-.008-.038-.01h0l-.031-.008-.037-.005h0l-.143-.033-.067.02-.05.013Zm7.448,120.471a6.108,6.108,0,0,1-4.285-2l-26.4-26.4A13.577,13.577,0,0,1,83.577-425.4l21.587-79.719a5.7,5.7,0,0,1,3.74-4.272l.052-.015.009,0,5.5-1.493.4-.086.143-.023.211-.025.058-.008.164-.008.482,0,.071,0,.094.01.313.036.116.018.108.023.2.041.116.028.094.028.166.048.134.043.076.028.138.051.129.051.07.031.112.051.144.069.077.038.194.1.106.061.113.066.077.046.177.117.1.066.188.132.04.031.251.2h0l.058.046.179.153.066.058.162.15.18.173,26.454,26.455.228.239.221.252.042.048.026.033.152.183.217.28.214.3.213.315.19.3.2.333.118.216.038.069.03.058.153.3.16.336.019.041.134.3.17.414.023.058.006.018.2.557.033.1.114.371.036.117.069.229.023.089.058.229.07.277.088.407.067.348.054.318.007.048.007.043.032.226.039.32.031.305.026.351.016.331,0,.069v.018l.006.254,0,.351,0,.109,0,.076-2.069-.053,2.068.1,0,.1-.021.343-.026.282v.005l0,.043-.038.313-.049.32-.016.086-2.044-.323,2.034.379-.032.173-.067.308-.075.292-21.587,79.717-.1.333-.1.31-.035.094-.02.051-.065.173-.138.318-.063.125-.042.087-.056.112-.2.351-.082.127-.055.084-.1.158-.244.315-.062.076-.463.481-.079.071-.058.046-.409.315-.18.117-.422.234-.182.086-.637.226L118.7-385.1l-.09.02a4.6,4.6,0,0,1-1.121.137" transform="translate(-450.542 921.87)" fill="#231f20"/><path d="M135.157-472.35l.054-.244.022-.117.009-.048.015-.084.039-.252.032-.262v-.028l.022-.236.017-.277,0-.107,0-.059,0-.114,0-.287-.006-.221v-.066l-.014-.282-.021-.282-.006-.061,0-.043-.017-.17-.033-.272-.03-.2,0-.033-.005-.033-.046-.275-.058-.3-.01-.048-.013-.061-.053-.239-.077-.3-.039-.153-.015-.061-.077-.252-.12-.389-.019-.064-.182-.5-.016-.043v-.005l-.146-.353-.118-.267-.008-.018,0-.01-.134-.28-.138-.272-.019-.036-.022-.038-.107-.2-.156-.267-.046-.074-.036-.058-.084-.132-.171-.257-.072-.1-.041-.056-.062-.086-.175-.226-.125-.15-.026-.033-.025-.028-.174-.2-.177-.186-.042-.041-26.4-26.4-.134-.132-.054-.048-.069-.064-.053-.048-.092-.076-.062-.053-.024-.02-.178-.137,0,0-.019-.013-.161-.115-.027-.018-.068-.046-.088-.056-.052-.031-.082-.048-.059-.036-.071-.036-.083-.043-.04-.023-.083-.036-.1-.046-.03-.013-.085-.033-.105-.041-.028-.01-.073-.02-.13-.041-.032-.01-.057-.013-.163-.036-.046-.01-.038,0-.239-.028-.027-.005h-.005l-.344,0h-.031l-.026.005-.149.018-.071.01-.217.048-5.505,1.492.216-.048.072-.01.149-.02.056,0,.345,0,.032,0,.239.031.083.013.163.036.088.023.13.038.1.033.105.041.116.046.1.043.123.059.082.043.131.074.081.048.14.086.068.043.188.135.018.013.2.16.062.053.144.125.071.064.187.18,26.4,26.4.417.453.025.031.364.465.039.056.329.488.036.058.309.534.022.041.3.6.008.018.265.625.016.043.2.559.119.386.093.313.04.155.127.537.014.061.119.659,0,.031.079.646,0,.046.042.656v.656l0,.061-.042.618,0,.018-.086.61-.009.048-.132.587-21.587,79.717-.174.544-.018.048-.195.447-.028.058-.221.387-.044.069-.244.331-.018.023-.3.313-.052.043-.257.2-.1.066-.238.132-.1.048-.347.125,5.505-1.492.347-.125.1-.048.238-.132.1-.066.256-.2.053-.043.013-.01.283-.295,0-.005.021-.025.173-.224.07-.107.045-.069.044-.064.135-.239.042-.084.028-.056.046-.094.1-.229.05-.127.018-.048.023-.058.078-.231.069-.239,0-.013L135.1-472.123l.058-.226" transform="translate(-438.046 922.853)" fill="#fff"/><path d="M101.175-507.828l.01.008.054.046.187.163.083.076.214.2,26.4,26.4.475.516.03.036.405.519.044.061.365.544.039.063.34.587.026.048.322.648c.11.242.206.468.3.7l.019.051.215.6.11.353.048.158.071.247.043.165.138.58.014.061c.05.244.093.481.129.72.041.267.068.5.091.735l.005.048q.033.359.044.717c.008.267.007.5,0,.722v.059c-.009.239-.024.468-.048.694-.026.249-.058.478-.1.7l-.008.046c-.046.247-.1.47-.153.679L109.5-390.151l-.2.631,0,.01,2.1-.569.2-.076.062-.03.145-.079.063-.041.166-.13.06-.048,0,0,.161-.168.017-.023.139-.175.053-.081.034-.051.036-.056.1-.178.03-.061.051-.1.091-.2.025-.066.017-.043.983.323-.967-.369.975.348-.959-.387.065-.191.058-.2,21.591-79.73.049-.193.047-.211.019-.1.016-.086.038-.247.029-.231,0-.041.017-.193.015-.244,0-.056,0-.061.005-.14v-.254l0-.2v-.046l-.013-.272-.018-.257-.007-.064-.006-.056-.012-.13-.031-.247-.036-.252-.042-.247-.053-.28-.011-.046,1-.27-1.012.219-.049-.224-.048-.188-.058-.224-.015-.058-.034-.112-.06-.193-.087-.282-.021-.066-.163-.448-.019-.051-.13-.318-.108-.244-.011-.023-.008-.018-.115-.239-.125-.244-.043-.081-.092-.165-.141-.241-.038-.061-.038-.061-.072-.112-.154-.229-.132-.186-.177-.229-.107-.13-.027-.033-.169-.193-.151-.158-.036-.038-26.4-26.4-.112-.107-.107-.1-.032-.028-.056-.048-.035-.03-.049-.041-.15-.12-.025-.018-.134-.1-.113-.074-.038-.023-.1-.056-.044-.025-.056-.031-.064-.033-.038-.018-.048-.023-.076-.036-.045-.018-.112-.043-.023-.008-.136-.041-.023-.008-.034-.008-.114-.025-.03-.005-.031-.005-.149-.018-.031,0-.2,0-.035,0-.086.01-.044.008-.127.028Zm4.984,121.272a1.034,1.034,0,0,1-1-.763,1.037,1.037,0,0,1,.728-1.271l.2-.074.058-.031.147-.081.061-.038.167-.127.051-.043.18-.186.027-.033.176-.239.033-.051.171-.3.023-.048.155-.358.985.32-.971-.358.146-.455,21.587-79.719.113-.5,1.027.14-1.019-.183.076-.534.039-.567v-.615l-.038-.625,1.026-.14-1.03.1-.073-.59c-.035-.231-.071-.432-.113-.633l1-.272-1.012.214-.117-.491-.036-.142-.054-.181-.053-.173-.09-.292-.184-.511-.018-.048-.239-.564-.276-.557-.024-.043-.274-.475-.025-.041-.3-.448-.038-.053-.316-.4-.381-.419-26.4-26.4-.158-.15-.058-.053-.12-.1.6-.844-.656.8-.166-.13-.168-.117-.054-.036-.7-.343-.161-.048-.125-.028-.057-.01-.152-.018-.05-.005h-.057l-.124.005-.043,0-.078.01-.053.008-.12.025a1.034,1.034,0,0,1-1.269-.727,1.036,1.036,0,0,1,.729-1.269l5.505-1.493.306-.069.09-.013.2-.025.041-.005.1-.005h.452l.058.008.277.033.078.01.083.018.191.041.07.015.076.023.128.038.1.033.068.023.089.036.128.048.055.025.1.046.115.051.05.028.184.094.068.041.359.221.047.033.178.127.028.018.213.168.032.025.175.15.048.043.159.145.15.145,26.45,26.453.2.211.2.224.027.033-.776.684.805-.648.139.168.2.257.194.269.192.285.178.282.176.3.117.216.024.043.026.048.146.285.147.308.017.038.124.28.158.387.022.058.193.529.024.076.105.341.048.155.056.186.016.064.064.247.063.247.081.376.063.326.05.3.042.295.036.295.016.16.008.084-1.029.107,1.034-.051.023.305.015.308v.043l.006.272v.318l0,.092,0,.076-1.035-.015,1.034.063,0,.1-.019.3-.024.262-.038.328-.044.28-.012.069-1.028-.132,1.017.193-.029.155-.061.275-.066.259L115-391.644l-.085.292-.092.272-.025.066-.971-.358.951.409-.061.158-.118.272-.139.28-.167.295-.054.081-.073.114-.072.107-.208.269-.006.008-.056.069-.354.366-.047.041-.053.043-.336.259-.137.089-.333.183-.144.069-.489.175-5.5,1.49-.006,0h0l-.271.036" transform="translate(-438.538 922.362)" fill="#231f20"/><path d="M138.413-481.394a11.288,11.288,0,0,1,2.482,10l-21.376,79.773c-.863,3.186-3.488,3.872-5.833,1.528l-26.4-26.4a11.512,11.512,0,0,1-2.694-10.053l21.587-79.719c.863-3.186,3.488-3.875,5.833-1.528l26.4,26.4" transform="translate(-449.559 923.56)" fill="#fff"/><path d="M109.684-507.662c-.908,0-1.641.786-2.012,2.159L86.084-425.787a10.5,10.5,0,0,0,2.427,9.052l26.4,26.4A3.176,3.176,0,0,0,117-389.243c.908,0,1.641-.786,2.012-2.156l21.374-79.773a10.238,10.238,0,0,0-2.214-9l-26.4-26.4a3.177,3.177,0,0,0-2.09-1.088ZM117-387.173a5.112,5.112,0,0,1-3.554-1.7l-26.4-26.4a12.442,12.442,0,0,1-2.962-11.058l21.587-79.717c.627-2.309,2.125-3.687,4.011-3.687a5.111,5.111,0,0,1,3.553,1.7l26.4,26.4a12.339,12.339,0,0,1,2.749,11L121.013-390.86c-.626,2.309-2.124,3.687-4.009,3.687" transform="translate(-450.053 923.068)" fill="#231f20"/><path d="M134.734-474.194l-18.621,69.5L86.47-434.342l18.622-69.5,29.642,29.644" transform="translate(-447.602 928.414)" fill="#fff"/><path d="M88.116-434.158,116.069-406.2l18-67.19-27.953-27.953ZM116.6-403.172a1.03,1.03,0,0,1-.731-.305L86.23-433.118a1.037,1.037,0,0,1-.268-1l18.621-69.5a1.04,1.04,0,0,1,.732-.732,1.038,1.038,0,0,1,1,.27l29.643,29.641a1.037,1.037,0,0,1,.268,1l-18.621,69.5a1.038,1.038,0,0,1-.732.732l-.268.035" transform="translate(-448.094 927.922)" fill="#231f20"/><path d="M109.168-493.907a1.22,1.22,0,0,1,.287,1.07.339.339,0,0,1-.621.163l-5.783-5.784a1.219,1.219,0,0,1-.287-1.07c.092-.341.369-.412.621-.16l5.783,5.782" transform="translate(-432.851 932.04)" fill="#231f20"/><path d="M107.772-495.508a1.692,1.692,0,0,1,.4,1.48.469.469,0,0,1-.858.224,1.688,1.688,0,0,1-.4-1.477.469.469,0,0,1,.858-.226" transform="translate(-429.098 935.782)" fill="#231f20"/><path d="M99.581-451.349l.019-.086.007-.038,0-.018.006-.031.013-.086.011-.089v-.008l.007-.084.006-.1,0-.033v-.02l0-.043v-.1l0-.074v-.025l-.005-.1-.007-.1,0-.02v-.015l-.006-.058-.012-.094-.01-.069v-.01l0-.013-.016-.094-.02-.1,0-.015-.005-.02-.018-.081-.026-.1-.013-.051-.006-.02-.027-.089-.041-.13-.006-.02-.068-.186-.05-.122-.044-.1h0v0l-.046-.1-.047-.092-.009-.015-.008-.015-.035-.064-.054-.092-.017-.028-.013-.02-.028-.043-.058-.086-.027-.038-.013-.018-.02-.028-.061-.079-.045-.053-.009-.01-.008-.01-.059-.069-.062-.064-.014-.015-5.094-5.093-.048-.046-.061-.056-.04-.033-.01-.01-.012-.01-.062-.046-.063-.046-.011-.008-.01-.005-.043-.028-.066-.041-.032-.015-.014-.008-.021-.01-.072-.033-.044-.018-.016-.005-.015-.008-.082-.023-.035-.008-.028-.008-.028-.005-.1-.013H92.6l-.106,0h-.008l-.149.025-1.15.313.149-.026.114,0h.023l.134.018.027.005.131.038.016.008.137.059.014.008.142.084.009.008.147.109.01.008.148.135,5.094,5.1.143.155.009.01.125.16.014.02.112.168.013.02.105.181.009.018.1.2v0l.168.425.041.132.032.107.013.053.044.186,0,.018.041.226,0,.013.027.221v.015l.014.224v.247l-.015.214v.005l-.031.211,0,.015-.046.2-.01.038-.061.188-.006.018-.066.155-.01.018-.075.135-.016.023-.081.112-.009.01-.1.107-.16.117-.041.023-.176.071h0l1.15-.31.176-.074.041-.023.16-.114,0,0,.1-.1,0,0,.009-.013.057-.071.025-.038.015-.026.015-.02.046-.081.016-.031.009-.02.015-.031.035-.079.018-.046.006-.015.007-.02.028-.079.024-.084v-.005l.011-.041.02-.076" transform="translate(-443.32 967.9)" fill="#fff"/><path d="M98.8-453.787l.019.033.4-.331Zm.064.114.019.035.426-.323Zm.022.043.018.033.433-.32Zm.281.834-.531.209.544-.168v0Zm.134.3.012.051.545-.168Zm.119.834,0,.041.53-.023Zm-.037.8.4.122-.4-.153Zm-.024.135.354.15-.348-.188Zm-.032.148.292.17-.286-.2Zm-1.433,1.551a.621.621,0,0,1-.6-.458.623.623,0,0,1,.436-.763l.051-.02.071-.048.046-.051.048-.064.054-.094.05-.114.048-.145.011-.041.035-.155.026-.175,0-.041.007-.137v-.193l-.012-.2-.025-.2-.036-.206-.042-.175.588-.209-.6.165-.016-.053-.012-.041-.035-.112-.143-.364-.086-.175-.093-.163-.1-.153-.109-.14-.116-.13-5.094-5.093-.106-.1-.106-.081-.093-.056-.081-.036-.067-.02-.047-.008h-.016l-.083.005a.619.619,0,0,1-.762-.435.622.622,0,0,1,.437-.763h0l1.149-.31.234-.043.043-.005.1,0h.079l.209.02.049.01.1.025.118.036.04.013.068.028.106.048.054.028.041.02.091.053.056.036.043.028.077.056.083.066.035.031.18.163,5.093,5.1.1.1.073.084.146.183.027.038.049.066.068.1.024.036.025.041.082.14.04.071.021.038.1.2.013.028.1.247.078.214.044.142-.573.247.591-.188.089.346.012.053.07.447.008.081.017.254v.229l0,.048-.623.036.621.028-.016.214v.018l-.029.209-.008.041v0l-.006.031-.055.242-.017.061-.059.186-.015.041-.027.071-.047.1-.019.041-.034.066-.066.119-.023.036-.54-.31.515.346-.035.053-.076.1-.021.025-.151.158-.042.033-.222.16-.068.038-.306.122-1.148.313-.163.02" transform="translate(-443.615 967.605)" fill="#231f20"/><path d="M97.919-454.56a3.939,3.939,0,0,1,.925,3.453l-.01.038c-.3,1.1-1.2,1.332-2,.526l-5.093-5.1a3.935,3.935,0,0,1-.926-3.453l.011-.038c.3-1.1,1.194-1.335,2-.526l5.094,5.1" transform="translate(-443.753 968.048)" fill="#fff"/><path d="M92.148-459.221c-.263,0-.4.419-.432.549l-.011.038a3.309,3.309,0,0,0,.766,2.853l5.093,5.093.533.3c.264,0,.4-.419.433-.547a3.326,3.326,0,0,0-.755-2.893l-5.094-5.093ZM98.1-449.147a2.01,2.01,0,0,1-1.41-.664L91.592-454.9a4.561,4.561,0,0,1-1.085-4.055l.011-.041a1.758,1.758,0,0,1,1.63-1.462,2.014,2.014,0,0,1,1.411.664l5.094,5.093a4.567,4.567,0,0,1,1.085,4.055,1.779,1.779,0,0,1-1.642,1.5" transform="translate(-444.048 967.753)" fill="#231f20"/></g></svg>