<svg xmlns="http://www.w3.org/2000/svg" xmlns:xlink="http://www.w3.org/1999/xlink" width="145.376" height="139.279" viewBox="0 0 145.376 139.279">
  <defs>
    <clipPath id="clip-path">
      <path id="path444" d="M116.528-300.024l-20.5.109a13.9,13.9,0,0,0,2.151-.175l20.5-.109a13.906,13.906,0,0,1-2.151.175" transform="translate(-96.028 300.199)"/>
    </clipPath>
    <clipPath id="clip-path-2">
      <path id="path450" d="M96.52-298.388a1.034,1.034,0,0,1-1.035-1.027,1.034,1.034,0,0,1,1.029-1.04,13.488,13.488,0,0,0,1.994-.165l.157-.013,20.5-.109h.006a1.035,1.035,0,0,1,1.031.951,1.035,1.035,0,0,1-.868,1.106,14.983,14.983,0,0,1-2.309.188l-20.5.109H96.52" transform="translate(-95.485 300.742)"/>
    </clipPath>
  </defs>
  <g id="Group_4" data-name="Group 4" transform="translate(406 -607.123)">
    <path id="path404" d="M205.215-284.886l-.025.114-.028.122-.033.114-.008.02.1-.409Zm-.127.473-.043.112-.053.13-.051.107-.008.015.168-.4Zm-.272.58-.094.15-.058.094,0,.005.239-.4-.025.048Zm-.328.48-.147.173.282-.353-.079.107Zm-.282.323-.2.193-.092.086-.02.018.381-.376-.013.015Zm-.529.486-.135.1-.127.094-.02.015.442-.351-.043.038Zm-.542.394-.155.1-.2.122.542-.351-.053.038Zm-63.5,36.778.082-.033Zm-3.013.735.072-.01Zm-3.15.033.023,0Zm-3.182-.707.1.036-.1-.033Zm-.151-.053h0Zm-1.3-.615.626.328h0ZM65.554-282.646l.324.254Zm.48.369.542.346Zm-.9-.765.265.259Zm-.754-1.063-.139-.323Zm.3.521L64.427-284Zm.324.4-.249-.308Zm-.944-2.2.033.371Zm.057.5.076.3-.05-.16Zm141.141-.376-.01.13-.013.112-.005.025c.209-1.409-.618-2.86-2.484-3.936l-62.271-35.952a13.3,13.3,0,0,0-12.075,0L66.537-288.926c-1.658.964-2.483,2.225-2.48,3.488v-.015l-.03,10.465c0,1.274.837,2.548,2.521,3.521l62.271,35.952a9.305,9.305,0,0,0,1.231.59l.069.025.149.053.519.178.179.056.121.038.219.053.53.13.141.033.213.038.452.079.182.031.2.023.426.048.2.023.192.01.432.023.218.01h.174l.468,0h.232l.138-.01.576-.038.232-.015.111-.013.174-.02.591-.084.144-.023.068-.013.275-.059.473-.1.336-.089.439-.125.094-.028.518-.183.076-.031.544-.234.158-.074.576-.3,61.864-35.952.1-.061.092-.058.155-.1.137-.092.145-.1.127-.1.132-.1.12-.1.122-.107.051-.046.043-.043.193-.191.064-.066.221-.259.008-.01.046-.061.12-.165.061-.092.094-.15.025-.043.031-.061.066-.127.051-.109.053-.13.025-.056.018-.053.041-.125.033-.112.031-.125.015-.066.008-.046.02-.13.015-.112.008-.127.005-.076,0-.074.028-10.465-.005.15" transform="translate(-467.957 978.405)" fill="#fff"/>
    <path id="path406" d="M129.1-243.989l-.49.247Zm5.39,2.441-.11,0h0l-.044-.005h-.024l-.066-.008a2.069,2.069,0,0,1-1.606-1.086,2.062,2.062,0,0,1-1.94.31l-.047-.018h-.006l-.071-.025-.077-.031-.027-.008-.157-.061-.32-.173-.417-.145-.577-.292-.2-.112a2.07,2.07,0,0,1-.756-2.827,2.072,2.072,0,0,1,2.827-.758l.116.066.02.01.335.17.256.145.2.056.125.048.048.015.1.033h0l.021.008a2.058,2.058,0,0,1,1.117.974,2.066,2.066,0,0,1,1.373-.422l.054,0a2.063,2.063,0,0,1,1.4.692,2.056,2.056,0,0,1,1.342-.717l.042-.008.017,0h.015a2.067,2.067,0,0,1,1.37.323,2.06,2.06,0,0,1,1.021-.905l.006,0h0v0l.035-.013.044-.02a2.07,2.07,0,0,1,2.7,1.134,2.065,2.065,0,0,1,.155.781,2.068,2.068,0,0,1-1.266,1.907l-.133.056a2.062,2.062,0,0,1-1.886-.2,2.066,2.066,0,0,1-1.543,1.045l-.1.013-.04.005h-.01l0,0h-.008a2.083,2.083,0,0,1-1.727-.689,2.071,2.071,0,0,1-1.576.732Zm1.141,6.389h.052l.127,0,.268-.005h.2l.123-.008.491-.033.169-.01.257-.031.52-.071.135-.023.038-.005.243-.053.4-.084.179-.046.094-.028.369-.1.111-.033.37-.132.084-.033.419-.178.125-.061.436-.226,61.943-36,.7-.514.031-.025.043-.043.107-.107.041-.043.112-.127.048-.064.046-.064.031-.051.041-.064.013-.023.023-.041.061-.132.01-.026.008-.02.033-.122.005-.013.008-.061.008-.064,0-.048.015-5.319a2.075,2.075,0,0,1-1.48-.87,2.074,2.074,0,0,1,.092-2.5l-.048-.081.048.081v0l-.046-.081.005,0,.229-.142h0l.15-.1.036-.025.02-.013.153-.117.137-.112.031-.025.01-.01.058-.053.013-.013.117-.117.033-.033,0,0,.046-.053.127-.158.01-.015h0l.008-.013.028-.041.081-.132.02-.036.013-.025,0-.005.064-.153.005-.013v-.008l.033-.13v-.005l0-.005c.084-.572-.481-1.276-1.472-1.851L140.425-322.1a10.378,10.378,0,0,0-5.011-1.17,10.262,10.262,0,0,0-4.99,1.167L68.56-286.152c-.886.514-1.423,1.129-1.449,1.653l0,.059.01.107.007.038.026.094v0l.016.053.055.125.035.076.083.135.057.074.133.165v0h0l.02.023.055.056.163.158.053.051.045.036,0,0h0l.216.17.08.061.031.023.379.241.013.008h0a2.071,2.071,0,0,1,.757,2.827,2.067,2.067,0,0,1-2.258.981L67.08-274c0,.542.553,1.185,1.486,1.724l62.27,35.952a7.239,7.239,0,0,0,.956.458l.041.015.133.048.42.142.247.076.18.046.448.109.129.031.167.028.382.069.151.025.177.02.364.041.192.02.147.008.369.02.195.01Zm-.119,4.139h-.076l-.208-.01-.046,0-.5-.028-.217-.01-.2-.023-.514-.056-.042-.005-.188-.023-.195-.033-.541-.094-.245-.043-.177-.043-.6-.148-.261-.064-.126-.041-.213-.066-.623-.211-.184-.069-.08-.028a11.65,11.65,0,0,1-1.5-.722L66.5-268.69c-2.264-1.309-3.561-3.249-3.554-5.321l.03-10.463,0-.079a6.3,6.3,0,0,1,3.508-5.177l61.865-35.952a14.292,14.292,0,0,1,7.069-1.729,14.362,14.362,0,0,1,7.079,1.726l62.272,35.952a6.36,6.36,0,0,1,3.549,5.187l0,.125v.005h0v.005l-.031,10.577-.01.173-.015.186-.02.168-.031.2-.018.114-.033.148-.043.168-.058.2L208-272.3l-.046.13-.046.109-.071.17-.086.183-.1.2-.056.1-.053.086-.13.209-.089.137-.175.244-.076.1-.025.031-.3.351-.076.079-.262.262-.094.092h0l-.079.069-.145.127-.163.135-.168.132-.173.13-.191.132-.16.109-.183.117-.038.023-.109.069-.137.081-61.854,35.947c-.214.125-.44.244-.715.376l-.193.092-.656.28-.087.036-.62.219-.142.041-.492.14-.07.02-.319.084-.521.114-.1.02-.253.051-.091.015-.158.025c-.217.036-.446.069-.675.1l-.329.038-.218.015-.044,0-.655.043-.157.01-.147,0h-.113l-.355,0h-.3" transform="translate(-468.941 977.42)" fill="#231f20"/>
    <path id="path408" d="M205.259-304.693l-.01.13-.013.112-.02.127-.025.114-.028.122-.033.114-.041.122-.043.112-.053.13-.051.107-.066.127-.059.1-.094.15-.058.094-.12.163-.056.074-.221.259-.061.064-.2.193-.092.086-.125.107-.117.1-.135.1-.127.094-.142.1-.137.094-.155.1-.2.122-61.864,35.952-.576.3-.157.074-.545.231-.074.031-.613.211-.44.125-.335.092-.473.1-.344.069-.144.023-.591.084-.174.02-.344.028-.577.041-.37.01H134.7l-.391-.01-.432-.023-.4-.033-.425-.048-.382-.053-.452-.079-.355-.071-.529-.13-.34-.092-.18-.056-.518-.175-.148-.056-.617-.262-.058-.025-.625-.328L66.577-301.37a4.746,4.746,0,0,1-2.433-2.807,2.97,2.97,0,0,1-.087-.714l-.03,10.465c0,1.274.837,2.548,2.521,3.521l62.271,35.952a9.306,9.306,0,0,0,1.231.59l.069.025.149.053.519.178.179.056.121.038.219.053.53.13.141.033.213.038.452.079.182.031.2.023.426.048.2.023.192.01.432.023.218.01h.174l.468,0h.232l.138-.01.576-.038.232-.015.111-.013.174-.02.591-.084.144-.023.068-.013.275-.059.473-.1.336-.089.439-.125.094-.028.518-.183.076-.031.544-.234.158-.074.576-.3,61.865-35.952.1-.061.092-.059.155-.1.137-.092.145-.1.127-.1.132-.1.119-.1.122-.107.051-.046.043-.043.193-.191.064-.066.221-.259.008-.01.046-.061.119-.165.061-.092.094-.15.025-.043.031-.061.066-.127.051-.109.053-.13.025-.056.018-.053.041-.125.033-.112.03-.125.015-.066.008-.046.02-.13.015-.112.008-.127.005-.076,0-.074.028-10.465-.005.15" transform="translate(-467.957 997.843)" fill="#fff"/>
    <path id="path410" d="M64.964-301.764l-.022,7.633c0,1.1.782,2.159,2.21,2.982L129.422-255.2a8.594,8.594,0,0,0,1.149.552l.2.074.49.168.286.089.093.023.113.025.5.125.137.033.088.018.111.018.432.076.365.051.407.046.377.031.414.023.21.01.015.623v-.623h.3l.3,0h.17l.186-.01.551-.036.123-.008.1-.008.254-.031.582-.081.141-.023.164.6-.109-.61.142-.03.128-.028.45-.1.229-.061.089-.025.418-.117.071-.023.507-.175.072-.031.507-.216.148-.071.534-.28,61.96-36.008.72-.5.1-.086.109-.1.036-.033.051-.048.168-.168.033-.033.216-.247.048-.066.1-.135.043-.069.084-.137.028-.043.02-.043.056-.107.041-.086.046-.107.02-.048.013-.043.033-.1.025-.089.025-.1.01-.046.008-.043.015-.1.013-.089.005-.1.005-.051,0-.069.02-7.638-.2.2-.107.1-.135.12-.127.107-.147.114-.14.1-.158.109-.147.1-.17.107-.211.13-61.863,35.952-.618.323-.168.079-.579.249-.077.031-.65.224-.412.117-.147.041-.256.069-.448.1-.152.03-.256.053-.147.023-.621.086-.184.023-.259.023-.1.008-.6.041-.384.01-.319,0h-.168l-.408-.013-.451-.023-.41-.036-.444-.048-.4-.059-.472-.081-.37-.074-.556-.137-.1-.025-.254-.071-.187-.059-.551-.188-.158-.056-.651-.28-.059-.025c-.238-.112-.464-.231-.674-.351L66.561-300.538a7.038,7.038,0,0,1-1.6-1.226Zm69.855,49.17h-.046l-.145-.008-.082-.005-.452-.025-.068,0-.13-.008-.142-.015-.072-.008-.441-.051-.077-.008-.133-.015-.127-.02-.062-.013-.475-.081-.076-.013-.147-.028-.106-.025-.043-.01-.555-.135-.074-.018-.157-.041-.3-.092-.565-.193-.229-.084a9.842,9.842,0,0,1-1.315-.631L66.531-290.073c-1.83-1.058-2.835-2.5-2.831-4.06l.03-10.463v0a.622.622,0,0,1,.621-.618h0a.62.62,0,0,1,.62.623h0l.068.562a4.166,4.166,0,0,0,2.141,2.42l62.271,35.952.58.3.054.023.579.249.139.048.49.168.172.056.211.056.111.028.5.125.338.066.431.076.364.051.408.046.376.033.414.02.376.01.152,0,.3-.005.353-.008.552-.038.109-.008.218-.02.169-.018.564-.081.135-.02.213-.043.167-.036.4-.084.217-.058.153-.043.364-.1.58-.2.071-.028.509-.219.147-.069.536-.282,61.864-35.949.155-.1.168-.1.1-.071.155-.107.341-.267.109-.1.084-.076.17-.17.056-.059.191-.224.046-.061.1-.14.033-.051.1-.155.048-.086.053-.1.043-.092.043-.1.094-.282.023-.1.02-.089.015-.1.01-.089.008-.1.005-.12a.622.622,0,0,1,.62-.618h0a.621.621,0,0,1,.62.62h0v.008h0v0l-.033,10.544-.005.081-.01.168-.015.117-.028.175-.008.053-.018.071-.041.163-.038.135-.048.147-.023.066-.025.061-.066.155-.058.13-.079.15-.036.069-.033.056-.107.173-.069.1-.14.191-.053.071-.259.3-.046.051-.239.239-.053.051-.043.038-.145.127-.132.109-.142.112-.14.1-.16.112-.531.338L141.5-254.124l-.618.325-.169.079-.578.247-.077.033-.55.193-.078.023-.486.14-.082.023-.27.071-.466.1-.13.028-.189.041-.055.008-.169.028-.615.086-.3.036-.156.01-.085.005-.6.041-.043,0-.1.008h-.209l-.356.005-.164,0-.134,0" transform="translate(-468.252 997.548)" fill="#231f20"/>
    <path id="path412" d="M202.732-288.924c3.343,1.93,3.361,5.06.036,6.992L140.9-245.98a13.307,13.307,0,0,1-12.071,0L66.562-281.932c-3.344-1.93-3.364-5.062-.04-6.995l61.864-35.949a13.3,13.3,0,0,1,12.075,0l62.271,35.952" transform="translate(-467.943 978.405)" fill="#fff"/>
    <path id="path414" d="M134.908-324.8a11.18,11.18,0,0,0-5.509,1.307L67.535-287.539a3.278,3.278,0,0,0-1.966,2.588c0,.941.713,1.871,2,2.616l62.27,35.952a11.245,11.245,0,0,0,5.525,1.309,11.153,11.153,0,0,0,5.51-1.309l61.864-35.952a3.284,3.284,0,0,0,1.968-2.588c0-.941-.714-1.869-2-2.614l-62.27-35.952A11.254,11.254,0,0,0,134.908-324.8Zm.459,81.792a13.333,13.333,0,0,1-6.559-1.584L66.536-280.544c-1.956-1.129-3.035-2.693-3.037-4.4s1.061-3.257,3-4.383l61.864-35.949a13.236,13.236,0,0,1,6.549-1.589,13.34,13.34,0,0,1,6.562,1.587l62.271,35.952c1.955,1.129,3.033,2.693,3.036,4.4s-1.06,3.257-3,4.383L141.916-244.6a13.216,13.216,0,0,1-6.55,1.589" transform="translate(-468.435 977.913)" fill="#231f20"/>
    <path id="path416" d="M81.044-331.654l20.5-.109,6.184.953-20.5.109-6.183-.953" transform="translate(-452.523 973.472)" fill="#fff"/>
    <path id="path418" d="M87.72-329.173l-.158-.013-6.184-.953a1.033,1.033,0,0,1-.874-1.1,1.034,1.034,0,0,1,1.026-.959l20.5-.109.164.013,6.184.953a1.035,1.035,0,0,1,.874,1.1,1.034,1.034,0,0,1-1.026.959l-20.5.109H87.72" transform="translate(-453.015 972.98)" fill="#231f20"/>
    <path id="path420" d="M88.737-308.429l20.5-.109-5.9,3.285-20.5.109,5.9-3.285" transform="translate(-450.9 994.536)" fill="#fff"/>
    <path id="path422" d="M89.5-306.9l-2.148,1.195,16.2-.086,2.149-1.195Zm-6.174,3.285a1.033,1.033,0,0,1-1-.77,1.034,1.034,0,0,1,.5-1.167l5.9-3.285.5-.13,20.5-.109h.006a1.032,1.032,0,0,1,1,.77,1.033,1.033,0,0,1-.5,1.167l-5.9,3.285-.5.132-20.5.107h-.006" transform="translate(-451.392 994.044)" fill="#231f20"/>
    <path id="path424" d="M88.011-345.773l20.5-.109,4.369,7.523-20.5.109-4.369-7.523" transform="translate(-446.204 960.668)" fill="#fff"/>
    <path id="path426" d="M90.3-344.256l3.17,5.461,18.116-.1-3.17-5.461Zm2.577,7.534a1.031,1.031,0,0,1-.895-.516l-4.369-7.523a1.033,1.033,0,0,1,0-1.032,1.035,1.035,0,0,1,.893-.521l20.5-.109H109a1.031,1.031,0,0,1,.895.516l4.369,7.523a1.036,1.036,0,0,1,0,1.032,1.037,1.037,0,0,1-.893.521l-20.5.109h0" transform="translate(-446.696 960.175)" fill="#231f20"/>
    <path id="path428" d="M94.847-300.483l20.5-.109-3.2,8.876-20.5.109,3.2-8.876" transform="translate(-442.911 1001.742)" fill="#fff"/>
    <path id="path430" d="M96.066-298.958l-2.455,6.8,18.3-.1,2.455-6.8Zm-3.931,8.879a1.033,1.033,0,0,1-.845-.437,1.032,1.032,0,0,1-.128-.948l3.2-8.876a1.036,1.036,0,0,1,.967-.684l20.5-.109a1.01,1.01,0,0,1,.851.44,1.032,1.032,0,0,1,.128.946l-3.205,8.876a1.033,1.033,0,0,1-.967.684l-20.5.109h-.005" transform="translate(-443.403 1001.249)" fill="#231f20"/>
    <path id="path432" d="M101.4-293.131l20.5-.109a6.544,6.544,0,0,1-.738-.043l-.225-.03-.593-.107-.109-.025-.665-.206-.332-.132-.465-.206-.236-.12-.563-.328-.144-.089c-.23-.15-.459-.318-.684-.5l-.133-.109c-.23-.188-.457-.384-.68-.6l-.023-.023c-.244-.239-.487-.491-.725-.763l-.466-.562-.066-.089-.351-.47-.132-.188-.27-.4-.138-.214-.347-.567q-.335-.58-.637-1.2l-.043-.086q-.289-.6-.547-1.228l-.051-.119c-.166-.409-.321-.829-.467-1.253l-.065-.186c-.141-.422-.271-.849-.393-1.284l-.058-.214q-.177-.656-.327-1.327l-.043-.2c-.1-.45-.185-.908-.261-1.368l-.034-.211c-.077-.478-.145-.959-.2-1.444l-.032-.341c-.04-.386-.077-.775-.1-1.164-.042-.623-.069-1.246-.077-1.874q-.011-.77.015-1.543l.006-.14c.019-.514.048-1.025.09-1.538l0-.041q.066-.778.17-1.551l.02-.137q.1-.732.235-1.452l.031-.163q.138-.721.311-1.426l.036-.147c.121-.481.254-.959.4-1.429l.03-.1c.156-.5.326-.992.51-1.472.12-.315.246-.618.376-.918l.086-.2c.128-.29.259-.575.4-.847l.06-.114c.122-.244.249-.483.378-.715l.1-.173q.216-.378.442-.732l.1-.15.387-.567.128-.175.5-.648,0,0,.524-.59.189-.193.355-.346.288-.259.3-.254.407-.31.252-.18a8.424,8.424,0,0,1,.813-.493l.212-.1.522-.236.269-.1.49-.158.276-.074.52-.1.242-.038a6.979,6.979,0,0,1,.764-.053l-20.5.109a6.967,6.967,0,0,0-.763.053l-.242.038-.52.1L99.41-332l-.491.158-.268.1-.524.236-.169.076-.042.025a9.011,9.011,0,0,0-.813.493l-.067.041-.185.14-.409.31-.111.084-.191.17-.288.259-.115.1-.239.244-.191.193-.068.071-.451.514-.006.008h0l-.419.531-.085.117-.127.175-.169.236-.219.331-.1.15-.046.069-.334.552-.064.114-.1.17-.163.292-.216.42-.06.117-.027.051-.29.613-.078.183-.087.2-.111.257-.263.661v0q-.13.339-.251.686c-.08.234-.159.468-.233.7l-.024.079-.031.1-.164.547c-.07.244-.137.491-.2.737l-.035.142-.036.147-.11.458c-.056.244-.108.488-.157.735l-.044.231-.031.165-.064.338c-.042.236-.081.476-.116.715l-.056.4-.02.142-.025.173q-.045.355-.082.709l-.063.664,0,.046,0,.031c-.021.257-.04.514-.054.773-.014.244-.024.488-.033.732l-.006.14,0,.074c-.014.473-.019.943-.013,1.414l0,.056c.008.628.036,1.251.077,1.874l.006.122c.025.351.062.7.1,1.042l.032.341,0,.043c.039.333.082.666.131.994l.066.407.034.211.035.219c.048.272.1.544.153.814l.073.336.043.2.056.257c.063.27.128.539.2.8l.073.264.058.216.091.323c.079.27.161.534.246.8l.056.163.064.186.149.427c.09.252.186.5.283.742l.036.084.05.12.214.506.3.659.032.064.043.084.239.478.322.587.077.135.255.425.092.142.137.214.112.173.158.229.133.188.063.089.287.381.067.089.013.015.384.468.068.079.341.374.384.389.023.023.01.01.451.409.22.181.132.109.112.092.515.369.057.036.144.089.357.221.206.107.236.119.175.092.29.114.332.132.119.048.546.158.109.025.294.066.3.041.225.031a6.53,6.53,0,0,0,.738.043" transform="translate(-444.427 972.915)" fill="#fff"/>
    <path id="path434" d="M97.064-295.855l.4.364.112.092.278.226.488.353.246.153.25.155.063.03.117.061.2.1.156.081.106.041.14.053.064.028.223.089.112.043.457.132.165.038.176.041.132.018.2.028.113.015.6.036v1.035l.02-1.035,15.066-.081-.1-.084c-.279-.229-.522-.442-.744-.656l-.034-.036c-.261-.252-.526-.531-.774-.816l-.5-.6-.055-.071-.39-.524-.142-.2-.287-.427-.147-.226-.364-.6c-.228-.392-.447-.8-.673-1.261l-.045-.089c-.195-.4-.382-.821-.574-1.284l-.053-.127c-.164-.4-.324-.834-.486-1.307l-.066-.191c-.142-.427-.279-.875-.409-1.337l-.062-.221c-.122-.45-.235-.913-.338-1.373l-.045-.209c-.1-.47-.192-.946-.27-1.414l-.034-.216c-.084-.526-.153-1.012-.207-1.493l-.021-.219-.012-.132c-.042-.4-.079-.8-.106-1.2-.045-.664-.072-1.312-.081-1.932-.006-.534,0-1.07.016-1.589l.006-.142c.021-.57.052-1.088.093-1.589l.005-.046c.044-.521.1-1.06.174-1.594l.02-.142c.069-.5.152-1.007.244-1.5l.032-.168c.094-.491.2-.986.322-1.477l.038-.155c.124-.493.263-.992.413-1.48l.033-.1c.166-.531.343-1.048.529-1.531.125-.331.257-.646.391-.958l.09-.209c.135-.305.273-.6.415-.887l.062-.119c.13-.259.263-.509.4-.753l.1-.181c.153-.27.31-.529.469-.778l.105-.16.413-.6.135-.188c.178-.239.357-.473.541-.694l.02-.023.547-.615.145-.15.06-.058.386-.379.316-.285.306-.257-15.051.079a5.567,5.567,0,0,0-.644.046l-.105.015-.1.018-.444.086-.234.061-.42.137-.232.086-.455.206-.127.058.015-.01-.072.041a7.5,7.5,0,0,0-.717.435l-.072.046-.039.028-.112.086-.366.277-.092.071-.078.069-.1.092-.261.234-.08.071-.151.15-.152.155-.113.117-.057.059-.421.48-.009.008-.386.491-.266.369-.09.125-.144.216-.152.234-.036.053-.322.529-.2.364-.1.183-.181.351-.081.158-.024.046-.277.585-.264.608-.251.63-.006.013h0c-.089.236-.164.442-.236.651l-.225.674-.052.175-.159.526c-.067.234-.131.473-.193.709l-.091.381-.081.338q-.08.355-.152.709l-.133.709c-.041.229-.078.46-.112.689l-.038.27-.06.422q-.043.339-.079.686l-.061.643,0,.043c-.024.277-.041.526-.056.776s-.023.475-.032.712l-.006.137,0,.051c-.015.47-.02.933-.015,1.391l0,.056c.008.575.034,1.187.077,1.813l0,.1c.023.331.055.643.088.956l.023.237.015.163,0,.053c.037.31.079.633.125.951l.039.241.091.567c.047.264.1.526.148.786l.166.768c.061.259.124.519.191.776l.214.77c.077.259.155.516.238.768l.161.47.1.275c.087.242.178.478.272.712l.107.257.178.419.288.625.07.142.228.453.3.557.071.125.241.4.634.946.286.379.042.056.049.066.34.409.045.051.333.369.354.356.03.031Zm4.8,4.251a7.465,7.465,0,0,1-.825-.048l-.195-.025-.15-.02-.257-.038-.278-.061-.182-.043-.631-.183-.136-.051-.323-.13-.137-.053-.247-.1-.153-.076-.048-.025-.264-.135-.06-.031-.168-.089-.343-.208-.093-.059-.127-.079-.069-.043-.564-.407-.093-.076-.242-.2-.177-.145-.487-.448-.021-.018,0-.005-.429-.435-.366-.4-.079-.089-.407-.493-.067-.089-.327-.43-.261-.374-.114-.165-.362-.562-.27-.453-.08-.14-.339-.618-.251-.5-.078-.158c-.108-.224-.215-.455-.317-.686l-.2-.468-.115-.277c-.1-.252-.2-.511-.3-.773l-.11-.318-.168-.488c-.089-.275-.176-.552-.257-.829l-.061-.219-.17-.615c-.071-.275-.14-.554-.2-.834l-.178-.819c-.057-.28-.108-.559-.158-.842l-.094-.585-.044-.28c-.05-.338-.095-.681-.135-1.025l0-.056-.02-.208-.019-.2c-.035-.333-.069-.669-.094-1.007l0-.107c-.047-.684-.073-1.332-.082-1.95l0-.056c-.006-.486,0-.976.014-1.457l0-.061.007-.158c.009-.254.019-.508.034-.76s.035-.529.057-.8l.007-.079.065-.684c.026-.244.055-.488.085-.73l.061-.44.043-.3c.037-.244.078-.491.12-.735l.142-.76c.051-.254.106-.508.163-.76l.091-.376.1-.394c.067-.262.135-.516.208-.77l.171-.567.057-.191c.077-.244.158-.488.242-.73s.17-.475.259-.712l0-.005c.089-.234.182-.465.276-.692l.077-.175.213-.491.3-.643.025-.048.089-.175.2-.394.124-.224.217-.389.351-.58.211-.32.176-.264.121-.17.285-.394.445-.562.006-.008h0l.007-.008.486-.554.067-.069.162-.168.127-.13.186-.186.1-.092.34-.305.061-.053.147-.13.111-.086.464-.351.049-.038.156-.117.1-.061a9.844,9.844,0,0,1,.858-.519l.082-.046.159-.074.617-.28.289-.109.577-.186.316-.086.6-.117.069-.01.212-.033a7.974,7.974,0,0,1,.883-.061l20.5-.109h.009a1.035,1.035,0,0,1,1.034,1.03,1.034,1.034,0,0,1-1.029,1.04,5.554,5.554,0,0,0-.644.046l-.1.015-.1.018-.442.086-.233.061-.423.137-.232.086-.452.206-.1.048-.083.041a7.354,7.354,0,0,0-.716.435l-.151.107-.076.056-.364.275-.272.231-.263.234-.322.315-.068.071-.105.107-.482.541-.011.013-.459.59-.119.165-.364.531-.093.14c-.141.221-.279.453-.416.692l-.088.16c-.124.221-.243.445-.361.676l-.057.112c-.128.257-.253.526-.375.8l-.083.188c-.123.287-.244.577-.358.877-.17.445-.335.92-.489,1.411l-.029.1c-.139.453-.268.915-.383,1.375l-.036.145c-.11.453-.212.915-.3,1.37l-.031.16c-.085.463-.162.933-.228,1.4l-.018.137c-.068.5-.123,1.007-.165,1.5s-.071.994-.091,1.528l-.006.137c-.016.488-.021.989-.014,1.495.007.58.033,1.192.076,1.815.026.379.061.755.1,1.129l.016.168.015.163c.052.448.115.905.193,1.4l.033.2c.073.44.158.885.252,1.325l.042.193c.1.43.2.859.315,1.279l.056.2c.121.432.248.847.379,1.238l.063.178c.149.437.3.829.446,1.2l.048.114c.176.425.346.806.522,1.17l.041.081c.2.414.4.786.6,1.134l.327.534.128.2.254.376.125.18.326.437.042.053.452.547c.213.244.436.48.666.7l.033.033c.171.163.366.336.606.531l.117.1.614.445.128.079.5.287.206.107.4.178.049.02.237.094.569.175.091.02.505.092.076.013.113.015.6.036h.026a1.034,1.034,0,0,1,1.035,1.027,1.037,1.037,0,0,1-1.028,1.043h-.013L101.9-291.6h-.03" transform="translate(-444.919 972.423)" fill="#231f20"/>
    <path id="path436" d="M116.528-300.024l-20.5.109a13.9,13.9,0,0,0,2.151-.175l20.5-.109a13.906,13.906,0,0,1-2.151.175" transform="translate(-438.934 1002.098)" fill="#fff"/>
    <path id="path438" d="M96.52-298.388a1.033,1.033,0,0,1-1.035-1.027,1.034,1.034,0,0,1,1.029-1.04,13.488,13.488,0,0,0,1.994-.165l.157-.013,20.5-.109h.006a1.033,1.033,0,0,1,1.031.951,1.035,1.035,0,0,1-.868,1.106,14.993,14.993,0,0,1-2.309.188l-20.5.109H96.52" transform="translate(-439.426 1001.606)" fill="#231f20"/>
    <g id="g440" transform="translate(-342.906 701.899)">
      <g id="g442" clip-path="url(#clip-path)">
        <g id="g448" transform="translate(-1.035 -1.035)" clip-path="url(#clip-path-2)">
          <path id="path454" d="M98.179-300.09l20.5-.109a13.906,13.906,0,0,1-2.151.175l-20.5.109a13.9,13.9,0,0,0,2.151-.175" transform="translate(-94.993 301.234)" fill="#fff"/>
          <path id="path456" d="M96.52-298.388a1.033,1.033,0,0,1-1.035-1.027,1.034,1.034,0,0,1,1.029-1.04,13.488,13.488,0,0,0,1.994-.165l.157-.013,20.5-.109h.006a1.033,1.033,0,0,1,1.031.951,1.035,1.035,0,0,1-.868,1.106,14.993,14.993,0,0,1-2.309.188l-20.5.109H96.52" transform="translate(-95.485 300.742)" fill="#231f20"/>
        </g>
      </g>
    </g>
    <path id="path458" d="M94.539-349.248l20.5-.109,7.808.857-20.5.109-7.808-.857" transform="translate(-440.284 957.515)" fill="#fff"/>
    <path id="path460" d="M102.84-346.865l-.113-.008-7.808-.857A1.033,1.033,0,0,1,94-348.81a1.034,1.034,0,0,1,1.028-.981l20.5-.109.118.008,7.807.854a1.037,1.037,0,0,1,.921,1.083,1.036,1.036,0,0,1-1.028.982l-20.5.109h0" transform="translate(-440.776 957.023)" fill="#231f20"/>
    <path id="path462" d="M98.634-348.8l20.5-.109.548,10.361-20.5.109L98.634-348.8" transform="translate(-436.57 957.923)" fill="#fff"/>
    <path id="path464" d="M100.217-347.277l.439,8.291,18.429-.1-.439-8.291Zm-.542,10.363a1.034,1.034,0,0,1-1.033-.979l-.549-10.361a1.03,1.03,0,0,1,.281-.763,1.039,1.039,0,0,1,.747-.325l20.5-.109h.006a1.034,1.034,0,0,1,1.033.979l.548,10.361a1.034,1.034,0,0,1-.28.765,1.027,1.027,0,0,1-.747.323l-20.5.109h-.006" transform="translate(-437.063 957.431)" fill="#231f20"/>
    <path id="path466" d="M101.963-302.562l20.5-.109.848,10.175-20.5.107-.848-10.173" transform="translate(-433.551 999.856)" fill="#fff"/>
    <path id="path468" d="M103.579-301.043l.676,8.106,18.426-.1L122-301.142Zm-.275,10.18a1.035,1.035,0,0,1-1.031-.948l-.849-10.175a1.033,1.033,0,0,1,.268-.783,1.025,1.025,0,0,1,.758-.336l20.5-.109h.006a1.035,1.035,0,0,1,1.031.948l.848,10.175a1.029,1.029,0,0,1-.267.783,1.026,1.026,0,0,1-.758.336l-20.5.109H103.3" transform="translate(-434.044 999.364)" fill="#231f20"/>
    <path id="path470" d="M105.97-297.229l20.5-.107-7.491,3.8-20.5.109,7.491-3.8" transform="translate(-436.71 1004.696)" fill="#fff"/>
    <path id="path472" d="M106.712-295.7l-3.371,1.711,15.88-.086,3.371-1.709Zm-7.741,3.8a1.035,1.035,0,0,1-1.005-.793,1.031,1.031,0,0,1,.537-1.165l7.491-3.8.463-.112,20.5-.109h.005a1.035,1.035,0,0,1,1.006.791,1.034,1.034,0,0,1-.537,1.165l-7.491,3.8-.463.112-20.5.109h-.006" transform="translate(-437.202 1004.203)" fill="#231f20"/>
    <path id="path474" d="M125.4-339.4l-.026-.023q-.441-.423-.888-.811l-.032-.031-.171-.14q-.363-.309-.73-.6l-.106-.086-.2-.145c-.233-.175-.468-.346-.7-.506l-.182-.132-.135-.084c-.337-.221-.675-.435-1.016-.628l-.042-.028-.011-.005-.061-.033c-.24-.135-.482-.262-.723-.384l-.246-.122-.307-.148-.4-.178-20.5.109c.236.1.471.211.706.325l.246.122c.241.122.483.249.723.384l.061.033.053.033c.341.193.679.407,1.016.628l.316.216c.235.16.471.331.7.506l.306.231c.245.191.489.392.731.595l.2.17c.3.257.595.529.888.811q.394.374.781.778l20.5-.109c-.25-.259-.5-.511-.754-.755" transform="translate(-436.309 962.85)" fill="#fff"/>
    <path id="path476" d="M103.3-341.862l.559.409.089.066.231.175c.257.2.512.409.766.623l.07.061.14.117c.313.27.624.554.926.844l.5.488,17.467-.092-.637-.519-.172-.135-.122-.087-.666-.48-.115-.081-.058-.043-.127-.079c-.355-.234-.668-.427-.961-.6l-.048-.031-.059-.033-.681-.361-.347-.17-.171-.084-.182-.081Zm2.846,4.856a1.036,1.036,0,0,1-.748-.318c-.247-.259-.5-.509-.749-.75-.277-.264-.563-.526-.85-.775l-.192-.16c-.232-.2-.465-.389-.7-.57l-.2-.15-.1-.071-.668-.481-.3-.2c-.351-.231-.664-.427-.96-.6l-.056-.035-.056-.028L99.9-341.5l-.23-.112-.662-.308a1.035,1.035,0,0,1-.607-1.157,1.034,1.034,0,0,1,1.009-.829l20.5-.109.413.084.425.188.228.109.156.076.2.1c.254.127.51.262.764.407l.057.031.076.046c.334.191.676.4,1.058.656l.142.089.135.1.056.038c.247.17.493.348.738.531l.065.048.147.1.087.071c.279.219.533.43.787.643l.055.046.125.1.046.041c.3.262.613.547.913.834l.031.031c.258.247.519.509.779.781a1.034,1.034,0,0,1,.206,1.119,1.034,1.034,0,0,1-.948.631l-20.5.109h0" transform="translate(-436.801 962.358)" fill="#231f20"/>
    <path id="path478" d="M127.4-305.052l.145-.239.39-.643.193-.32.254-.445-20.5.109c-.147.259-.3.511-.447.763l-.391.646-.319.5-.423.643-.32.465-.473.656-.309.417c-.194.254-.391.5-.59.747l-.235.292q-.435.522-.881,1.007l-.184.193q-.39.416-.79.809l-.561.539,20.5-.109.421-.4.14-.142q.4-.393.791-.808l.142-.145.041-.048q.447-.484.881-1.007l.045-.051.192-.242c.2-.244.4-.493.589-.748l.105-.132.2-.285.472-.656.146-.2.174-.262.423-.643.174-.264" transform="translate(-433.551 996.203)" fill="#fff"/>
    <path id="path480" d="M108.975-305.066l-.079.132-.076.127-.4.664-.328.516-.435.661-.33.481c-.162.231-.324.455-.488.676l-.05.069-.268.361c-.2.264-.406.521-.611.773l-.095.117-.148.186q-.363.435-.726.836l17.6-.094.114-.107.041-.043.1-.1c.252-.249.505-.506.756-.773l.093-.094.089-.1c.28-.305.565-.631.843-.966l.047-.053.078-.1.105-.135c.19-.234.38-.47.568-.717l.1-.127.1-.135.1-.142.457-.636.31-.45.411-.625.2-.308Zm-6.52,7.684a1.036,1.036,0,0,1-.963-.659,1.033,1.033,0,0,1,.263-1.139l.476-.455.063-.064c.256-.249.51-.506.76-.776l.176-.183c.28-.305.566-.633.848-.971l.228-.282c.191-.236.38-.475.569-.722l.248-.333.05-.069.459-.636.31-.453.41-.623.31-.488.379-.628.077-.13.359-.615a1.037,1.037,0,0,1,.9-.526l20.5-.109h.006a1.037,1.037,0,0,1,.892.511,1.035,1.035,0,0,1,.009,1.032l-.26.455-.122.2-.077.125-.4.664-.06.1-.088.147-.112.17-.068.1-.435.659-.066.1-.112.17-.1.132-.055.076c-.161.231-.323.455-.487.676l-.08.112-.132.181-.077.1-.032.041q-.3.393-.609.77l-.074.094-.124.158-.051.058c-.295.351-.6.7-.909,1.037l-.048.053-.1.107-.041.041c-.271.29-.546.57-.823.839l-.043.046-.106.107-.439.412a1.026,1.026,0,0,1-.692.269l-20.5.112h0" transform="translate(-434.043 995.711)" fill="#231f20"/>
    <path id="path482" d="M109.537-339.319l20.5-.109-3.356,8.314-20.5.109,3.355-8.314" transform="translate(-429.725 966.52)" fill="#fff"/>
    <path id="path484" d="M110.729-337.8l-2.519,6.242,18.265-.1,2.518-6.242Zm-4.055,8.319a1.034,1.034,0,0,1-.856-.455,1.03,1.03,0,0,1-.1-.966l3.355-8.317a1.036,1.036,0,0,1,.955-.646l20.5-.109a1,1,0,0,1,.861.453,1.036,1.036,0,0,1,.1.969l-3.356,8.314a1.037,1.037,0,0,1-.953.648l-20.5.109h-.005" transform="translate(-430.217 966.028)" fill="#231f20"/>
    <path id="path486" d="M104.954-344.206l20.5-.109L131.151-335l-20.5.109-5.7-9.318" transform="translate(-430.838 962.089)" fill="#fff"/>
    <path id="path488" d="M107.286-342.69l4.434,7.256,18.083-.1-4.434-7.254Zm3.857,9.329a1.035,1.035,0,0,1-.883-.5l-5.7-9.316a1.039,1.039,0,0,1-.021-1.045,1.037,1.037,0,0,1,.9-.531l20.5-.107h.006a1.032,1.032,0,0,1,.882.493l5.695,9.316a1.035,1.035,0,0,1,.021,1.045,1.037,1.037,0,0,1-.9.531l-20.5.109h0" transform="translate(-431.33 961.598)" fill="#231f20"/>
    <path id="path490" d="M128.3-308.032l.108-.506c.075-.343.151-.684.221-1.03l.012-.053.124-.664c.053-.28.108-.559.158-.839l.011-.064c.047-.267.087-.534.131-.8l.11-.676.009-.051c.051-.338.1-.676.141-1.015l.067-.475,0-.025q.1-.755.177-1.515v-.008l.036-.379c.039-.389.078-.778.11-1.167v-.02c.044-.542.083-1.086.116-1.627v-.015h0q.045-.748.072-1.5l0-.058-10.25.056-10.251.053q-.03.79-.077,1.574-.049.816-.116,1.627c-.034.414-.074.829-.116,1.243l-.031.323q-.082.774-.181,1.548l-.067.475c-.049.356-.1.712-.15,1.065l-.108.666c-.048.292-.093.587-.145.877-.048.275-.1.547-.153.819-.047.247-.091.493-.14.74-.069.338-.144.676-.218,1.014l-.123.575,20.5-.109.012-.056" transform="translate(-428.272 983.666)" fill="#fff"/>
    <path id="path492" d="M110.89-318.892l-.034.608q-.049.824-.117,1.647c-.036.422-.076.842-.119,1.264l-.031.328q-.083.786-.184,1.571l-.041.292-.036.257c-.046.338-.091.676-.143,1.014l-.072.442-.073.45-.112.676-.112.6-.088.468-.1.511-.071.343,18.381-.1c.055-.257.111-.511.163-.765l.009-.046.078-.407.092-.493.11-.587.008-.043.093-.557.08-.5.068-.419.008-.043c.043-.285.08-.564.118-.844l.087-.631.006-.041c.061-.481.119-.976.171-1.475l.036-.381c.039-.384.078-.768.109-1.152.046-.554.083-1.088.115-1.622l.027-.47Zm-2.614,12.553a1.04,1.04,0,0,1-.808-.389,1.034,1.034,0,0,1-.2-.877l.071-.331.079-.361c.063-.29.126-.58.185-.872l.093-.478.09-.481.106-.572.107-.646.076-.463.067-.412c.05-.325.094-.656.139-.984l.038-.272.036-.259q.1-.763.179-1.528l.03-.315c.042-.412.081-.819.116-1.228q.066-.8.113-1.6.046-.774.076-1.551a1.037,1.037,0,0,1,1.029-1l20.5-.109a1.075,1.075,0,0,1,.75.318,1.03,1.03,0,0,1,.289.76l0,.051c-.02.514-.045,1.02-.074,1.526-.034.567-.073,1.116-.118,1.665-.035.417-.074.814-.114,1.208l-.036.384c-.054.521-.114,1.032-.18,1.543l-.044.326-.049.343c-.039.292-.078.582-.121.872l-.008.046-.074.455-.078.48-.094.575-.008.046-.118.633-.089.475-.082.435-.01.043c-.063.315-.129.615-.2.918l-.073.346-.067.308a1.1,1.1,0,0,1-1.016.862l-20.5.109h0" transform="translate(-428.764 983.174)" fill="#231f20"/>
    <path id="path494" d="M107.784-313.834l20.5-.109,4.4,6.834-20.5.109-4.4-6.834" transform="translate(-428.272 989.633)" fill="#fff"/>
    <path id="path496" d="M110.165-312.317l3.071,4.772,18.049-.1-3.072-4.772Zm2.509,6.845a1.032,1.032,0,0,1-.87-.475l-4.4-6.834a1.034,1.034,0,0,1-.04-1.053,1.028,1.028,0,0,1,.9-.542l20.5-.109a1.033,1.033,0,0,1,.876.475l4.4,6.834a1.033,1.033,0,0,1,.04,1.053,1.038,1.038,0,0,1-.9.542l-20.5.109h0" transform="translate(-428.764 989.141)" fill="#231f20"/>
    <path id="path498" d="M112.131-310.25l20.5-.109-4.292,11.241-20.5.109,4.292-11.241" transform="translate(-428.221 992.884)" fill="#fff"/>
    <path id="path500" d="M113.338-308.727l-3.5,9.168,18.28-.1,3.5-9.166Zm-5.006,11.246a1.04,1.04,0,0,1-.851-.445,1.037,1.037,0,0,1-.115-.959l4.292-11.241a1.035,1.035,0,0,1,.96-.666l20.5-.109a.985.985,0,0,1,.855.445,1.034,1.034,0,0,1,.116.958L129.8-298.257a1.036,1.036,0,0,1-.961.666l-20.5.109h0" transform="translate(-428.713 992.391)" fill="#231f20"/>
    <path id="path502" d="M136.054-323.327l-5.95-.387-.062-.305-.093-.432c-.073-.353-.148-.7-.228-1.055l-.052-.236-.092-.379c-.081-.341-.165-.681-.251-1.02l-.081-.328-.078-.285c-.094-.356-.193-.709-.294-1.063l-.106-.386-.053-.168q-.193-.652-.4-1.3l-.077-.249-.014-.038q-.255-.778-.53-1.538l-.031-.089-.135-.353c-.13-.351-.262-.7-.4-1.042l-.072-.191q-.183-.454-.372-.9l-20.5.109c.153.359.3.725.445,1.091q.2.515.4,1.042l.166.442q.274.759.53,1.538l.091.287q.207.645.4,1.3l.159.554c.1.351.2.707.294,1.063l.159.613c.086.338.17.679.25,1.02l.145.618c.079.346.154.7.228,1.048.051.249.105.493.155.742h0l5.95.386,20.5-.109" transform="translate(-429.725 970.474)" fill="#fff"/>
    <path id="path504" d="M110.946-324.093l5.13.333,13.334-.071c-.068-.32-.135-.638-.206-.953l-.142-.608c-.08-.333-.162-.669-.246-1l-.156-.6q-.14-.526-.29-1.045l-.052-.188-.053-.191-.051-.165c-.127-.43-.259-.852-.4-1.274l-.076-.244c-.181-.547-.354-1.05-.534-1.548l-.022-.064-.073-.193-.068-.175q-.191-.515-.389-1.022l-.07-.183-.1-.252-18.281.1c.1.247.19.5.282.745l.064.168.105.285q.28.774.541,1.566l.093.295q.21.652.408,1.319l.115.4.047.163c.1.358.2.72.3,1.081l.162.623q.131.519.254,1.037l.026.109.121.519q.116.515.224,1.037Zm5.1,2.4-.067,0-5.95-.386a1.036,1.036,0,0,1-.949-.831l-.1-.458-.057-.272c-.073-.346-.146-.692-.223-1.035l-.116-.5-.026-.107c-.08-.338-.162-.671-.246-1l-.157-.6c-.092-.351-.19-.7-.289-1.048l-.156-.544c-.126-.427-.258-.849-.394-1.271l-.088-.282c-.168-.511-.342-1.012-.521-1.51l-.094-.252-.069-.183c-.127-.341-.256-.681-.389-1.02-.143-.358-.286-.714-.436-1.068a1.039,1.039,0,0,1,.087-.974,1.042,1.042,0,0,1,.859-.465l20.5-.109a1.069,1.069,0,0,1,.957.631c.129.305.255.61.379.92l.074.193c.139.351.274.707.406,1.063l.056.142.083.221.024.071c.193.534.374,1.055.547,1.584l.015.043.077.249q.212.656.409,1.322l.054.17.065.234.043.16c.1.356.2.717.3,1.078l.031.114.05.178.049.2.033.135q.131.515.254,1.037l.04.163.055.224.053.239c.078.346.152.692.225,1.04l5.166.336a1.035,1.035,0,0,1,.967,1.063,1.036,1.036,0,0,1-1.029,1l-20.5.109h-.006" transform="translate(-430.217 969.982)" fill="#231f20"/>
    <path id="path506" d="M114.242-321.766l-5.606,2.578,20.5-.109,5.607-2.578-20.5.109" transform="translate(-427.499 982.44)" fill="#fff"/>
    <path id="path508" d="M114.964-320.239l-1.055.483,15.491-.081,1.054-.486Zm-5.836,2.578a1.034,1.034,0,0,1-1.01-.811,1.032,1.032,0,0,1,.578-1.162l5.606-2.578.427-.1,20.5-.109a1.041,1.041,0,0,1,1.016.811,1.035,1.035,0,0,1-.578,1.164l-5.605,2.578-.427.094-20.5.109h-.006" transform="translate(-427.992 981.948)" fill="#231f20"/>
    <path id="path510" d="M111.1-328.8l20.5-.109.915,13.417-20.5.109L111.1-328.8" transform="translate(-425.268 976.059)" fill="#fff"/>
    <path id="path512" d="M112.7-327.28l.773,11.347,18.428-.1-.773-11.35Zm-.193,13.422a1.032,1.032,0,0,1-1.032-.964l-.915-13.417a1.038,1.038,0,0,1,.274-.775,1.042,1.042,0,0,1,.753-.331l20.5-.109h0a1.036,1.036,0,0,1,1.034.964l.914,13.42a1.028,1.028,0,0,1-.274.773,1.023,1.023,0,0,1-.753.331l-20.5.109H112.5" transform="translate(-425.76 975.567)" fill="#231f20"/>
    <path id="path514" d="M104.036-281.061c5.234,5.985,12.263,3.542,15.7-5.451,3.008-7.882,2.265-18.177-1.483-24.632a16,16,0,0,0-1.774-2.5c-5.232-5.988-12.257-3.544-15.694,5.451-3.008,7.882-2.265,18.182,1.483,24.637a16,16,0,0,0,1.77,2.492Zm23.677,13.107a31.038,31.038,0,0,1-5.923,7.681l.848,10.173-7.491,3.8-2.524-9.263a14.375,14.375,0,0,1-7.309-.75l-3.2,8.876-7.184-5.411,1.544-10.1a35.165,35.165,0,0,1-3.352-4.828q-1.022-1.762-1.9-3.692l-5.9,3.285-3.517-12.1,5.042-6.1a71.816,71.816,0,0,1-.883-12.153l-5.853-4.1,1.8-13.122,6.184.953a56.134,56.134,0,0,1,1.854-5.807,47.253,47.253,0,0,1,1.957-4.439l-2.976-9.626,6.267-8,4.369,7.523a18.111,18.111,0,0,1,6.81-3.674l1.269-10.478,7.808.857.548,10.361a20.74,20.74,0,0,1,6.732,4.833l4.772-6.435,5.7,9.318-3.355,8.314a57.743,57.743,0,0,1,3.422,11.355l5.95.386.915,13.417-5.606,2.578a68.079,68.079,0,0,1-1.624,12.548l4.4,6.834L133-263.693l-5.284-4.261" transform="translate(-453.378 957.567)" fill="#fff"/>
    <path id="path516" d="M110.691-315.394c-3.361,0-6.52,3.016-8.449,8.065-2.844,7.452-2.251,17.442,1.411,23.747a14.951,14.951,0,0,0,1.654,2.332,7.455,7.455,0,0,0,5.5,2.924c3.363,0,6.522-3.016,8.451-8.062,2.843-7.452,2.25-17.437-1.411-23.742a15.015,15.015,0,0,0-1.657-2.337A7.45,7.45,0,0,0,110.691-315.394Zm.118,39.138h0a9.435,9.435,0,0,1-7.06-3.633,16.949,16.949,0,0,1-1.886-2.652c-3.95-6.8-4.6-17.536-1.555-25.525,2.249-5.883,6.129-9.4,10.383-9.4a9.436,9.436,0,0,1,7.058,3.636,16.983,16.983,0,0,1,1.89,2.657c3.949,6.8,4.6,17.533,1.554,25.52-2.247,5.883-6.129,9.395-10.384,9.395Zm2.307,20.155a1.036,1.036,0,0,1,1,.763l2.19,8.037,5.738-2.911-.792-9.484a1.042,1.042,0,0,1,.333-.849,29.887,29.887,0,0,0,5.721-7.424,1.042,1.042,0,0,1,.707-.508,1.041,1.041,0,0,1,.844.211l4.175,3.369,3.6-9.423-4.115-6.395a1.035,1.035,0,0,1-.139-.791,66.919,66.919,0,0,0,1.6-12.354,1.034,1.034,0,0,1,.6-.9l4.958-2.281-.8-11.8-5.047-.328a1.034,1.034,0,0,1-.948-.831,56.676,56.676,0,0,0-3.359-11.152,1.03,1.03,0,0,1-.007-.791l3.16-7.834-4.623-7.564-3.86,5.2a1.03,1.03,0,0,1-.766.414,1.033,1.033,0,0,1-.813-.315,19.792,19.792,0,0,0-6.392-4.6,1.032,1.032,0,0,1-.625-.895l-.5-9.481-5.917-.651-1.146,9.463a1.032,1.032,0,0,1-.757.875,17.074,17.074,0,0,0-6.419,3.468,1.038,1.038,0,0,1-.842.226,1.035,1.035,0,0,1-.714-.5l-3.6-6.2-4.992,6.377,2.816,9.107a1.032,1.032,0,0,1-.064.77,46.336,46.336,0,0,0-1.914,4.343,55,55,0,0,0-1.82,5.7,1.031,1.031,0,0,1-1.159.76l-5.144-.793L81.7-302.621l5.336,3.743a1.037,1.037,0,0,1,.44.859,70.831,70.831,0,0,0,.871,11.978,1.036,1.036,0,0,1-.224.824l-4.694,5.675,3,10.323,4.768-2.654a1.04,1.04,0,0,1,.825-.079,1.027,1.027,0,0,1,.619.554c.574,1.253,1.2,2.466,1.857,3.6a34.17,34.17,0,0,0,3.253,4.688,1.037,1.037,0,0,1,.227.819l-1.45,9.486,5.57,4.193,2.728-7.556a1.035,1.035,0,0,1,.536-.587,1.047,1.047,0,0,1,.794-.033,13.424,13.424,0,0,0,6.789.7Zm2.523,11.332-.419-.089a1.04,1.04,0,0,1-.579-.674l-2.287-8.4a15.4,15.4,0,0,1-5.917-.587l-2.862,7.925a1.031,1.031,0,0,1-.677.641,1.031,1.031,0,0,1-.918-.165L94.8-251.525a1.032,1.032,0,0,1-.4-.981l1.474-9.641a36.616,36.616,0,0,1-3.154-4.61c-.513-.885-1.006-1.813-1.472-2.769l-4.936,2.746a1.038,1.038,0,0,1-.9.053,1.036,1.036,0,0,1-.6-.669l-3.518-12.1a1.03,1.03,0,0,1,.2-.946l4.745-5.741a72.9,72.9,0,0,1-.828-11.317L80-301.288a1.037,1.037,0,0,1-.431-.989l1.8-13.12a1.033,1.033,0,0,1,.406-.689,1.046,1.046,0,0,1,.777-.193l5.269.811c.481-1.729,1.033-3.41,1.645-5.011.532-1.4,1.141-2.8,1.812-4.16l-2.854-9.23a1.035,1.035,0,0,1,.175-.943l6.267-8.007a1.041,1.041,0,0,1,.886-.394,1.032,1.032,0,0,1,.823.514l3.769,6.491a18.822,18.822,0,0,1,5.57-2.921l1.188-9.8a1.031,1.031,0,0,1,1.14-.9l7.807.854a1.035,1.035,0,0,1,.921.974l.516,9.733a21.548,21.548,0,0,1,5.614,3.938l4.059-5.472a1.035,1.035,0,0,1,.877-.417,1.038,1.038,0,0,1,.837.493l5.694,9.316a1.038,1.038,0,0,1,.078.928l-3.2,7.92a58.537,58.537,0,0,1,3.159,10.381l5.161.336a1.034,1.034,0,0,1,.965.961l.914,13.42a1.036,1.036,0,0,1-.6,1.009l-5.032,2.314a68.952,68.952,0,0,1-1.527,11.675L138.65-275a1.033,1.033,0,0,1,.1.928l-4.291,11.241a1.035,1.035,0,0,1-.7.631,1.032,1.032,0,0,1-.919-.193l-4.347-3.506a31.525,31.525,0,0,1-5.138,6.532l.806,9.674a1.034,1.034,0,0,1-.563,1.009l-7.49,3.8-.469.112" transform="translate(-453.87 957.075)" fill="#231f20"/>
  </g>
</svg>
